<svg width="30" height="30" viewBox="0 0 30 30" fill="none" xmlns="http://www.w3.org/2000/svg">
<path d="M7.06236 3.70392C6.88273 3.29581 6.78955 2.8544 6.78955 2.40252V1.20971C6.78955 0.818576 7.10813 0.5 7.49926 0.5C7.89039 0.5 8.20896 0.818576 8.20896 1.20971V1.69357C8.20896 2.10261 8.54154 2.43555 8.95095 2.43555C9.36022 2.43555 9.69293 2.10285 9.69293 1.69357V1.20971C9.69293 0.818576 10.0115 0.5 10.4026 0.5C10.7938 0.5 11.1123 0.818577 11.1123 1.20971V1.69357C11.1123 2.10261 11.4449 2.43555 11.8543 2.43555C12.2636 2.43555 12.5963 2.10285 12.5963 1.69357V1.20971C12.5963 0.818577 12.9149 0.5 13.306 0.5C13.6971 0.5 14.0157 0.818576 14.0157 1.20971V2.40252C14.0157 3.03041 13.8358 3.6384 13.4943 4.16393L13.3894 4.27555L8.35649 2.90481L8.10544 2.83644L7.90539 3.00281L7.06236 3.70392Z" stroke="white"/>
<path d="M5.9209 12.095L4.95307 11.6111H3.38724V4.35278H0V13.5467H3.38724V12.5789H4.72468L5.69251 13.0627H6.29062V12.0949L5.9209 12.095ZM2.41941 12.579H0.967826V5.32051H2.41951V12.579H2.41941Z" fill="white"/>
<path d="M10.4078 22.2375L10.4064 22.2374C7.40504 22.1164 4.90979 19.5636 4.85595 16.5575L4.85595 16.5574C4.82788 15.0039 5.40838 13.5373 6.49177 12.4236L6.49184 12.4235C7.54042 11.3451 8.16182 10.0003 8.23499 8.60547L10.093 7.41229L10.6295 7.94886V12.5787V13.0787H11.1295H14.5168H14.7279L14.8752 12.9273L15.0743 12.7226C15.9567 13.7646 16.4362 15.0693 16.4362 16.4518C16.4362 18.0441 15.805 19.5253 14.6562 20.6286L14.6561 20.6287C13.5668 21.6752 12.1532 22.2423 10.649 22.2423C10.5672 22.2423 10.4874 22.2409 10.4078 22.2375Z" stroke="white"/>
<path d="M13.0636 15.4822V15.2423C13.0636 14.3083 12.3039 13.5467 11.37 13.5467H11.128V12.5789H10.1602V13.5467H9.91818C8.98424 13.5467 8.22461 14.3064 8.22461 15.2403C8.22461 16.1742 8.98434 16.9339 9.91818 16.9339H11.3699C11.7701 16.9339 12.0957 17.2596 12.0957 17.6598C12.0957 18.06 11.7701 18.3856 11.3699 18.3856H9.91828C9.51808 18.3856 9.19243 18.0619 9.19243 17.6617V17.4178H8.22461V17.6617C8.22461 18.5956 8.98434 19.3533 9.91818 19.3533H10.1602V20.3212H11.128V19.3533H11.37C12.3039 19.3533 13.0636 18.5936 13.0636 17.6598C13.0636 16.7258 12.3039 15.9661 11.37 15.9661H9.91828C9.51808 15.9661 9.19243 15.6405 9.19243 15.2403C9.19243 14.84 9.51808 14.5144 9.91828 14.5144H11.37C11.7702 14.5144 12.0958 14.842 12.0958 15.2422V15.4821L13.0636 15.4822Z" fill="white"/>
<path d="M15.107 6.77471C15.3393 6.51723 15.4845 6.179 15.4845 5.80598C15.4845 5.00567 14.8332 4.35329 14.0328 4.35329H12.2317L11.8949 3.9323L8.11337 2.85083L5.14762 5.32102H2.90332V6.28885H5.49795L8.33936 3.92211L11.3322 4.77759L12.3503 6.04976C12.4848 6.21818 12.5443 6.42918 12.5172 6.64297C12.4901 6.85687 12.3798 7.04657 12.2071 7.17571C11.8949 7.4099 11.4512 7.37841 11.1745 7.10215L10.1979 6.12563L7.4403 8.33184L8.0447 9.08767L10.1259 7.42259L10.4898 7.78691C10.5431 7.84019 10.6025 7.88366 10.6611 7.92864C10.6964 8.28187 10.8251 8.48947 11.023 8.70866C10.7908 8.96613 10.6456 9.30387 10.6456 9.67689C10.6456 10.0499 10.7913 10.3877 11.023 10.6447C10.7908 10.9022 10.6456 11.2384 10.6456 11.6115C10.6456 12.4128 11.2969 13.0632 12.0973 13.0632H14.0329C14.8332 13.0632 15.4846 12.4128 15.4846 11.6125C15.4846 11.2394 15.3389 10.9027 15.1071 10.6452C15.3394 10.3877 15.4846 10.051 15.4846 9.67739C15.4846 9.30387 15.3389 8.96703 15.1071 8.70956C15.3394 8.45209 15.4846 8.11485 15.4846 7.74173C15.4845 7.36892 15.3388 7.03208 15.107 6.77471ZM14.0328 12.0955H12.0972C11.8305 12.0955 11.6134 11.8782 11.6134 11.6116C11.6134 11.345 11.8306 11.1278 12.0972 11.1278H14.0328C14.2994 11.1278 14.5166 11.3451 14.5166 11.6116C14.5167 11.8783 14.2994 12.0955 14.0328 12.0955ZM14.0328 10.1599H12.0972C11.8305 10.1599 11.6134 9.94266 11.6134 9.67609C11.6134 9.40942 11.8306 9.19222 12.0972 9.19222H14.0328C14.2994 9.19222 14.5166 9.40952 14.5166 9.67609C14.5167 9.94276 14.2994 10.1599 14.0328 10.1599ZM14.0328 8.2244H12.2399C12.4331 8.16683 12.6194 8.07677 12.7877 7.95053C13.0316 7.76762 13.2116 7.52714 13.3316 7.25667H14.0328C14.2994 7.25667 14.5166 7.47396 14.5166 7.74053C14.5166 8.0071 14.2994 8.2244 14.0328 8.2244ZM14.0328 6.28885H13.4651C13.4207 5.98399 13.304 5.69364 13.1056 5.44546L13.006 5.32112H14.0328C14.2994 5.32112 14.5166 5.53841 14.5166 5.80498C14.5167 6.07155 14.2994 6.28885 14.0328 6.28885Z" fill="white"/>
<path d="M26.6128 22.7399V24.1915H23.3722L22.0425 23.3051L17.9643 21.8587C17.5762 21.7223 17.1596 21.7498 16.7927 21.9362C16.4254 22.1225 16.1579 22.4418 16.0383 22.8357C15.8317 23.5175 16.1385 24.2554 16.7676 24.5894L17.8151 25.1458L16.2919 25.1506L15.6657 23.5847C15.4596 23.0718 14.9693 22.7399 14.4158 22.7399C13.9837 22.7399 13.5753 22.9499 13.3231 23.3002C13.0711 23.6515 13.0028 24.1054 13.1407 24.5148L13.2874 24.9493L12.2257 24.3691C11.8879 24.1838 11.4843 24.148 11.119 24.2713C10.7537 24.3933 10.4532 24.6647 10.2944 25.0155C9.98378 25.7017 10.2697 26.5006 10.9453 26.8341L13.3338 28.0128L18.2918 29.0212L24.7252 29.0304L26.6128 28.653V29.9982H30.0001V22.7399H26.6128ZM14.1091 23.8649C14.2717 23.6384 14.6636 23.6864 14.7666 23.9448L15.2505 25.154L14.3785 25.1569L14.0582 24.2055C14.019 24.0889 14.0374 23.9651 14.1091 23.8649ZM24.6293 28.0627H18.4345L13.705 27.1166L11.3736 25.9664C11.1689 25.8652 11.0818 25.6228 11.1762 25.4143C11.2251 25.3063 11.3136 25.226 11.4264 25.1888C11.5381 25.1501 11.6582 25.1612 11.7622 25.2187L13.4244 26.127H18.017L19.9265 25.1723L17.222 23.7347C17.0004 23.6166 16.892 23.3568 16.9646 23.1163C17.0066 22.9774 17.101 22.8642 17.2307 22.7988C17.36 22.7326 17.507 22.7239 17.6439 22.7712L21.5567 24.1441L23.0791 25.1593H26.6129V27.6658L24.6293 28.0627ZM29.0322 29.0304H27.5806V23.7076H29.0322V29.0304Z" fill="white"/>
</svg>
