<svg width="311" height="143" viewBox="0 0 311 143" fill="none" xmlns="http://www.w3.org/2000/svg">
<path d="M11.9924 134.032C8.03059 136.234 4.20007 138.363 0.380613 140.486C-0.252911 139.559 0.222755 138.987 0.573863 138.448C3.443 134.044 7.31564 130.955 12.6664 130.685C15.732 130.531 18.4211 129.577 21.1582 128.495C24.5507 127.153 28.0959 126.372 31.6626 125.716C33.4634 125.384 35.3057 125.53 37.0023 126.32C38.4154 126.979 39.161 126.489 39.8714 125.19C41.7137 121.822 42.3316 118.293 41.779 114.256C38.5429 114.938 35.5739 114.05 32.5908 113.283C30.5497 112.758 28.62 113.098 26.6823 113.838C25.4986 114.29 24.2439 114.631 22.9909 114.811C18.4949 115.456 16.0383 113.435 15.7651 108.911C15.5572 105.47 15.6562 102.008 16.3159 98.6408C17.3045 93.5952 17.4283 88.5636 16.1741 83.6226C14.0763 75.358 15.887 67.6055 18.7522 59.9437C20.4865 55.3061 21.73 50.6599 21.4312 45.5879C20.8979 36.5314 25.8891 30.5163 33.0562 25.9965C39.8488 21.7129 47.2072 21.8495 54.6799 23.7201C55.9095 24.0279 56.954 23.9758 58.1749 23.5579C65.9072 20.9117 73.5889 21.0877 80.3577 25.8849C87.5701 30.9965 91.9102 38.3461 92.1018 47.258C92.2879 55.9128 93.0157 64.4397 94.4379 72.9577C94.9103 75.7869 95.2328 78.7021 95.0368 81.6059C94.6763 86.9473 96.2407 91.8489 98.3255 96.6477C99.3184 98.9332 100.133 101.259 100.505 103.759C101.263 108.856 97.9734 112.946 92.854 112.904C89.6215 112.877 86.4053 112.925 83.1928 113.294C82.2555 113.402 81.3253 113.47 80.3071 114.104C80.9227 117.325 82.3831 120.077 84.9454 122.228C85.6408 122.812 86.3095 122.59 86.9692 122.127C93.9404 117.231 101.752 116.448 109.921 117.424C110.888 117.539 111.911 117.594 112.426 116.597C114.382 112.805 117.896 112.544 121.444 112.75C122.967 112.838 123.826 112.454 124.577 111.246C127.352 106.779 130.186 102.354 131.009 96.9944C131.344 94.819 131.144 92.9939 129.397 91.306C125.067 87.1219 122.513 81.9786 121.337 76.0193C120.437 71.457 118.717 67.1972 115.905 63.3253C113.198 59.5992 112.026 55.1855 112.444 50.5214C112.701 47.6589 113.729 47.0517 116.785 47.8093C115.342 43.1959 114.511 38.5948 114.05 33.9449C113.403 27.418 113.421 20.9122 115.071 14.4837C117.044 6.79337 121.707 2.339 129.743 1.36201C137.155 0.460916 144.541 -0.39046 152.025 0.190257C158.273 0.675031 164.392 1.75865 170.399 3.57918C175.151 5.01937 177.731 8.54076 179.194 12.8813C182.484 22.6395 183.022 32.6423 181.109 42.7669C181.016 43.2596 181.087 43.8905 180.31 44.1464C179.345 43.8198 179.418 42.7885 179.163 42.0377C177.032 35.7571 174.518 29.6895 170.245 24.4949C166.914 20.4458 162.847 18.9658 157.697 20.3006C153.22 21.461 148.735 22.6885 143.996 21.9365C141.98 21.6166 140.097 20.9279 138.18 20.3208C133.034 18.6912 128.951 19.693 125.644 24.0437C119.429 32.2193 116.922 41.4134 119.28 51.5845C120.429 56.5386 121.104 61.5385 121.072 66.5806C121.041 71.2762 122.394 75.2622 125.365 78.8511C127.678 81.6442 129.957 84.499 131.232 87.9805C131.371 88.36 131.613 88.7349 131.631 89.1202C131.788 92.5184 134.036 94.5058 136.448 96.3893C138.198 97.7552 139.914 99.1684 141.711 100.469C146.448 103.898 151.496 103.952 156.251 100.884C162.478 96.8664 167.98 91.8892 173.1 86.5143C173.851 85.7266 174.452 84.8691 174.458 83.68C174.493 77.1344 176.31 71.0832 179.45 65.3706C181.614 61.4352 181.151 57.2113 180.476 53.0094C180.306 51.9479 179.952 50.9158 179.784 49.854C179.409 47.47 180.486 45.5395 182.293 45.2373C184.074 44.9395 185.629 46.2668 186.235 48.5162C187.281 52.3988 186.701 56.1268 184.494 59.3514C182.142 62.7885 181.433 66.5521 180.957 70.5345C180.403 75.1817 179.034 79.6283 176.612 83.6784C176.02 84.6673 175.9 85.5782 176.098 86.7262C176.625 89.7884 177.271 92.7913 178.465 95.6818C181.244 102.411 186.671 106.131 193.054 108.815C193.881 109.164 194.636 108.839 195.415 108.666C199.228 107.82 202.891 108.137 206.353 110.065C207.262 110.571 208.258 111.206 208.287 112.245C208.336 114.021 209.457 114.34 210.777 114.869C214.279 116.27 217.736 117.816 219.98 121.604C221.036 118.066 221.271 114.846 221.002 111.571C220.777 108.82 220.475 106.073 220.326 103.318C220.258 102.071 219.728 101.119 218.956 100.262C215.233 96.1258 213.025 91.3577 212.536 85.7565C212.193 81.8249 210.762 78.3824 207.718 75.6201C206.031 74.0881 204.95 71.9822 204.227 69.7753C203.344 67.0813 203.781 66.0299 206.3 64.6702C206.012 63.1267 204.935 61.9386 204.31 60.5424C202.886 57.3597 202.621 54.1589 204.065 50.9628C204.741 49.4665 204.773 48.1134 203.975 46.73C202.55 44.2625 202.237 41.8893 204.046 39.3882C205.202 37.7904 205.273 35.8248 204.871 33.9297C203.98 29.7253 205.644 26.4563 208.775 23.9742C211.507 21.8092 213.964 19.6415 215.176 16.183C216.03 13.7486 218.458 13.3839 220.735 13.3088C222.206 13.2602 223.685 13.4602 225.16 13.5545C228.379 13.7601 231.434 13.2118 234.351 11.7659C236.466 10.7177 238.72 10.8457 240.81 11.7748C245.671 13.9364 250.505 16.0711 255.907 16.569C257.565 16.7218 258.768 18.0414 259.776 19.3179C262.14 22.313 264.784 24.9026 268.33 26.5217C270.142 27.3492 270.53 29.2604 270.471 31.021C270.372 33.9228 271.045 36.2721 273.593 37.9935C274.752 38.7761 274.924 40.2716 275.059 41.6343C275.326 44.3288 275.902 46.8439 277.418 49.2371C279.167 51.9981 278.77 55.0301 277.217 57.8836C276.671 58.8861 276.052 59.8645 275.642 60.9221C275.03 62.4988 274.626 63.9392 276.222 65.4819C277.554 66.7695 277.209 68.7431 276.662 70.4731C275.547 74.0046 273.625 77.097 271.172 79.8095C269.466 81.6968 268.599 83.8361 268.166 86.2785C267.514 89.9519 266.353 93.5193 264.5 96.7179C262.702 99.821 262.231 102.875 262.859 106.358C263.754 111.329 264.471 116.326 266.479 121.012C266.769 121.69 267.145 122.332 267.491 122.985C268.206 124.334 269.186 124.74 270.658 124.079C272.251 123.364 273.908 122.8 275.667 122.59C279.911 122.081 282.399 124.348 282.229 128.598C282.112 131.517 282.118 131.468 285.077 131.824C289.102 132.308 293.142 131.901 297.167 132.118C301.359 132.344 305.303 133.278 308.262 136.584C309.048 137.462 309.938 138.319 310.07 139.599C309.361 140.347 308.673 139.904 307.981 139.735C302.759 138.458 297.535 137.203 292.111 137.137C290.213 137.113 288.414 137.312 286.6 138.019C282.589 139.582 280.809 138.405 280.454 134.082C280.374 133.112 280.009 132.571 279.126 132.338C275.427 131.363 272.086 129.699 269.196 127.17C268.253 126.346 267.554 127.118 266.858 127.544C263.222 129.768 260.135 132.685 256.979 135.511C255.425 136.902 253.918 138.347 252.328 139.694C247.882 143.46 242.705 143.993 237.488 141.371C232.255 138.74 228.335 134.579 224.503 130.315C223.027 128.674 221.661 126.933 220.129 125.099C216.132 129.927 210.475 130.148 204.927 130.734C197.848 131.482 191.274 133.604 185.559 138.031C184.625 138.755 183.722 139.604 182.403 139.868C180.962 138.35 181.804 136.588 182.088 135.083C182.871 130.944 184.481 127.104 187.099 123.736C190.102 119.874 194.162 118.099 198.895 117.518C201.406 117.21 203.877 116.682 206.177 114.674C203.404 113.772 200.944 112.972 198.484 112.175C198.292 112.112 198.069 112.11 197.904 112.008C194.219 109.748 190.777 111.233 187.179 112.463C179.363 115.135 172.794 119.637 166.978 125.405C164.867 127.497 162.422 129.198 159.82 130.626C153.675 133.999 149.011 133.629 143.64 129.125C140.345 126.362 137.291 123.312 134.097 120.426C131.739 118.297 129.179 116.453 126.248 115.173C124.865 114.57 123.714 114.427 122.455 115.719C120.606 117.615 118.13 118.368 115.511 118.577C113.178 118.763 112.857 119.166 113.392 121.501C114.015 124.224 115.298 126.671 116.686 129.064C117.869 131.104 119.036 133.152 119.848 135.376C120.085 136.026 120.228 136.743 119.629 137.256C118.985 137.808 118.289 137.437 117.797 137.001C110.505 130.548 101.261 128.959 92.2979 126.658C90.8022 126.275 89.2221 126.017 87.8695 125.328C86.1406 124.449 84.904 124.859 83.4915 125.949C79.4434 129.072 75.2357 131.99 71.2377 135.174C66.0632 139.295 60.6814 139.132 54.9771 136.541C50.4395 134.48 46.1446 131.963 41.7329 129.666C40.171 128.853 38.9804 128.539 37.4539 129.954C35.3077 131.945 32.5109 132.537 29.6068 132.604C26.1044 132.685 22.6151 132.595 19.1581 131.983C16.4867 131.511 14.3477 132.871 11.9924 134.032ZM17.1057 106.107C17.1228 106.983 17.1332 107.859 17.1582 108.735C17.2608 112.338 18.9743 113.854 22.5867 113.461C23.4458 113.368 24.3446 113.196 25.118 112.832C28.6459 111.171 32.1848 111.509 35.7255 112.673C37.307 113.193 38.9026 113.139 40.5138 113.078C41.5448 113.04 41.9253 112.578 41.6911 111.499C41.1344 108.936 40.5645 106.369 40.1804 103.777C39.6953 100.504 38.2035 97.3068 39.5077 93.8739C40.2799 91.841 40.1313 89.6253 40.2367 87.4956C40.329 85.6293 39.1013 84.4543 37.5809 84.7651C35.5308 85.1843 34.1845 84.2398 33.0743 82.788C30.7437 79.7401 29.1815 76.3519 28.7922 72.4783C28.3948 68.5244 30.359 66.6627 34.2061 67.3649C34.3068 67.3833 34.4332 67.2605 34.6257 67.1646C34.2324 63.8388 34.1876 60.4795 34.6735 57.1374C35.1571 53.8108 35.6577 50.4949 36.7057 47.269C39.1563 39.7254 47.2101 35.3923 54.6691 37.7089C57.2667 38.5156 59.7614 38.6376 62.2404 37.1299C64.1781 35.9513 66.4112 35.6157 68.6645 35.8563C77.854 36.8377 86.7411 45.9317 86.827 55.233C86.8924 62.3198 88.1644 69.3127 87.9363 76.3911C87.7047 83.5793 86.0461 90.2579 80.9078 95.6502C79.0515 97.5982 77.1788 99.5307 75.3048 101.462C72.5539 104.296 69.2123 105.298 65.3636 104.577C59.9051 103.554 55.0392 101.219 50.6644 97.8133C48.8601 96.4087 47.0748 94.9714 45.1897 93.683C44.2505 93.0412 43.1423 92.2854 41.9217 93.3037C41.9588 94.349 42.6971 94.8949 43.2574 95.5403C47.5084 100.436 47.7589 107.994 43.8191 113.194C43.5617 113.534 43.3634 113.868 43.3797 114.285C43.559 118.889 42.6675 123.245 40.1243 127.424C46.0863 130.282 51.502 133.774 57.5401 136.124C62.1134 137.904 66.0984 137.472 69.9919 134.419C74.4375 130.934 79.0647 127.682 83.6121 124.327C83.887 124.124 84.1243 123.892 84.1246 123.281C82.1249 121.563 80.4219 119.394 79.694 116.649C79.2295 114.897 78.5404 113.724 76.4405 113.926C75.7738 113.99 74.9898 113.612 74.3719 113.246C72.9448 112.4 72.6941 110.587 73.7532 109.201C74.845 107.773 76.0736 108.094 77.2428 109.065C77.7483 109.485 78.2702 110.011 78.5111 110.601C79.2274 112.355 80.4968 112.511 82.1219 112.208C85.23 111.629 88.3693 111.131 91.5357 111.556C97.3978 112.342 99.994 107.541 99.0832 102.917C98.6092 100.511 97.5894 98.313 96.6503 96.0807C95.021 92.2077 93.7608 88.2493 93.7973 83.9821C93.8451 78.3767 93.2471 72.8267 92.2903 67.3152C91.2857 61.5281 90.4922 55.7121 90.8222 49.8337C91.1212 44.5065 89.5904 39.7514 87.0523 35.189C81.4543 25.126 70.3043 20.7353 59.4427 24.4997C57.6182 25.132 56.0658 25.4364 54.0624 24.9685C46.0736 23.1029 38.4008 23.2869 31.504 28.7973C25.7029 33.4323 22.1505 38.9227 22.8512 46.6355C22.9969 48.2384 22.8519 49.8496 22.6366 51.4659C22.1052 55.4555 20.4778 59.0977 19.179 62.835C17.1611 68.6416 15.8332 74.4909 17.1223 80.6571C18.118 85.42 18.7916 90.2104 18.2996 95.0867C17.9419 98.6323 16.9863 102.111 17.1057 106.107ZM264.204 51.7102C263.458 49.6786 262.495 47.7443 261.301 45.9522C257.344 40.012 251.991 36.1165 244.869 39.3251C238.934 41.9984 232.986 42.111 226.761 40.7043C223.169 39.8927 219.563 40.3895 216.778 43.1083C211.617 48.1478 210.537 54.7677 210.679 61.4961C210.853 69.7375 213.273 77.6526 215.295 85.5895C216.627 90.8179 219.971 95.2806 221.182 100.576C221.224 100.756 221.391 100.927 221.537 101.059C225.028 104.202 228.069 107.924 232.223 110.224C235.5 112.038 238.996 113.791 242.93 112.655C247.673 111.285 252.004 108.892 256.134 106.268C258.541 104.738 260.905 102.516 260.996 99.4356C261.175 93.3914 263.152 88.1323 266.692 83.354C267.25 82.6019 267.847 81.8644 267.898 80.8493C268.391 71.0226 267.758 61.3381 264.204 51.7102ZM30.7647 75.7459C31.6205 78.2574 32.7855 80.5919 34.6794 82.4952C35.2494 83.0681 35.8386 83.5811 36.7641 83.5349C40.2484 83.3612 41.4906 84.6255 41.4704 88.1941C41.4644 89.2471 41.1329 90.3256 41.5926 91.3439C45.203 91.9123 45.9247 92.239 48.9975 94.7084C49.7839 95.3403 50.5454 96.0037 51.3383 96.6271C55.2978 99.7401 59.5995 102.186 64.6008 103.138C67.4191 103.675 70.3731 103.937 72.6703 101.855C75.5543 99.2406 78.5205 96.6655 80.9596 93.6087C86.4063 86.7827 87.0987 78.7496 86.57 70.4494C86.3052 66.2915 85.3473 62.1924 85.5822 57.9889C86.1484 47.8545 78.8181 39.6052 69.7507 37.2584C67.447 36.6622 65.2324 36.825 63.3445 38.0612C60.1836 40.1312 56.9771 40.1492 53.7559 38.6767C50.6389 37.2519 47.8418 37.8559 45.1544 39.5107C41.3083 41.8789 38.4317 45.0481 37.3935 49.6272C35.927 56.0947 34.8692 62.5728 36.506 69.1802C36.6009 69.5634 36.6736 69.9888 36.1897 70.3002C35.3421 70.5172 34.932 69.7433 34.3785 69.3301C33.5425 68.706 32.7089 68.0776 31.6323 68.5883C30.5449 69.1041 30.2302 70.1508 30.1046 71.262C29.9421 72.6997 30.3964 74.0597 30.7647 75.7459ZM210.282 70.0465C209.659 65.2418 208.879 60.4491 209.809 55.5851C210.404 52.4675 211.105 49.3745 212.432 46.4906C214.597 41.784 219.748 37.7672 227.823 39.5779C233.473 40.8449 238.971 40.6794 244.353 38.163C249.535 35.7408 254.303 36.7834 258.526 40.5476C261.561 43.2529 263.55 46.6898 265.036 50.3989C268.494 59.0352 269.611 68.0737 269.384 77.3226C269.367 78.0251 269.091 78.7808 269.721 79.663C272.606 76.3079 274.946 72.7856 275.845 68.4709C276.013 67.6627 275.864 66.7462 275.122 66.1847C274.517 66.2729 274.422 66.7166 274.231 67.0518C273.572 68.2072 272.595 68.6666 271.344 68.2344C270.324 67.8818 269.573 67.1261 269.661 65.9774C269.771 64.543 270.837 64.1199 272.099 64.1232C273.078 64.1258 273.573 63.6702 273.736 62.7226C274.075 60.7612 275.044 59.0726 275.994 57.3541C277.492 54.6447 277.76 51.8611 275.946 49.1442C275.036 47.7807 274.407 46.353 274.212 44.6842C273.887 41.9 273.748 39.0322 270.827 37.3466C269.929 36.828 269.641 35.5603 269.482 34.4849C269.296 33.2234 269.184 31.9445 269.141 30.6698C269.093 29.2638 268.585 28.1969 267.292 27.5647C264.141 26.025 261.623 23.7464 259.529 20.9532C258.288 19.298 256.79 17.7964 254.657 17.6403C249.832 17.2874 245.611 15.2356 241.316 13.3135C238.873 12.22 236.386 12.0883 233.918 13.3401C232.401 14.1103 230.749 14.3898 229.087 14.6883C226.387 15.173 223.72 14.5735 221.037 14.6106C218.524 14.6453 216.579 15.3769 215.882 18.123C215.491 19.6601 214.541 20.9102 213.339 21.936C212.01 23.0713 210.611 24.1275 209.307 25.2909C206.773 27.5511 205.504 30.3642 206.195 33.7722C206.667 36.099 206.31 38.2845 205.134 40.1918C203.863 42.2513 203.977 44.0669 205.108 46.041C206.186 47.9222 206.254 49.8057 205.233 51.8106C203.961 54.305 204.194 56.8879 205.212 59.4445C205.865 61.0821 206.776 62.5711 207.729 64.0354C208.561 65.314 208.571 66.2361 206.78 66.3319C205.236 66.4145 205.023 67.3404 205.242 68.5474C205.56 70.3029 206.302 71.8898 207.432 73.2641C208.917 75.0682 210.451 76.8308 212.341 79.0557C211.585 75.8185 210.951 73.1061 210.282 70.0465ZM190.439 109.992C190.46 109.156 190.468 109.141 188.983 108.391C182.879 105.31 178.592 100.679 176.47 94.0657C175.734 91.7694 175.374 89.3821 174.586 86.8701C169.836 92.3066 164.245 96.4939 158.794 100.83C155.092 103.773 150.866 104.995 146.139 103.973C142.931 103.279 140.502 101.211 138.012 99.2745C136.234 97.8914 134.518 96.4282 132.375 94.6738C132.22 102.03 128.51 107.518 124.851 113.289C132 115.622 136.571 121.059 141.668 125.795C143.303 127.316 145.069 128.639 146.948 129.827C150.198 131.881 153.532 132.249 157.088 130.553C160.521 128.916 163.733 126.907 166.369 124.209C173.075 117.343 181.09 112.81 190.439 109.992ZM150.478 20.5775C152.84 20.4092 155.12 19.7623 157.355 19.087C163.162 17.3319 167.623 19.3479 171.296 23.7553C174.34 27.4068 176.581 31.5339 178.249 35.9829C178.809 37.4765 179.426 38.9484 180.225 40.9507C181.114 35.6439 180.977 30.9083 180.66 26.227C180.31 21.0626 179.35 15.9708 177.069 11.2024C175.378 7.66913 172.715 5.55017 169.003 4.46952C155.849 0.640273 142.578 0.633682 129.161 2.81136C122.278 3.92853 118.271 7.86668 116.474 14.3994C114.68 20.9236 114.502 27.5364 115.393 34.2118C115.763 36.982 115.904 39.7925 117.005 42.8702C117.217 41.8033 117.36 41.1593 117.472 40.5098C118.383 35.2303 119.768 30.1129 122.78 25.5947C126.758 19.6254 132.124 16.3704 139.826 19.5419C143.113 20.8958 146.598 21.1664 150.478 20.5775ZM241.611 141.524C245.098 142.303 248.156 141.271 250.84 139.117C256.339 134.705 261.125 129.424 267.145 125.641C267.231 125.587 267.235 125.402 267.273 125.277C263.168 118.493 262.166 110.839 261.194 102.875C259.241 105.505 257.22 107.631 254.483 108.942C252.483 109.9 250.427 110.776 248.53 111.914C241.195 116.313 232.624 113.237 227.856 108.874C225.869 107.055 223.879 105.238 221.633 103.185C221.861 105.216 221.796 106.821 222.004 108.434C222.547 112.65 222.942 116.94 221.591 121.047C220.916 123.1 221.446 124.499 222.633 126.006C226.017 130.304 229.712 134.301 233.984 137.723C236.146 139.455 238.5 140.896 241.611 141.524ZM197.553 119.229C189.952 120.225 181.697 130.93 183.29 137.731C183.417 137.709 183.564 137.719 183.668 137.657C184.014 137.452 184.361 137.242 184.679 136.996C189.286 133.421 194.491 131.204 200.214 130.235C203.45 129.687 206.719 129.338 209.96 128.815C212.823 128.354 215.635 127.708 217.824 125.562C219.415 124.002 219.528 123.125 218.223 121.376C215.795 118.12 212.167 116.84 208.561 115.529C208.059 115.347 207.65 115.472 207.254 115.785C204.505 117.95 201.195 118.551 197.553 119.229ZM118.392 135.322C117.892 133.55 116.85 132.054 115.931 130.499C114.047 127.31 112.125 124.142 112.114 120.252C112.111 119.2 111.393 118.889 110.515 118.828C104.359 118.397 98.1852 117.757 92.3716 120.706C90.7349 121.536 88.9676 122.136 87.2429 123.79C97.9987 127.231 109.314 128.291 118.392 135.322ZM303.817 134.913C302.661 134.348 301.425 134.071 300.169 133.83C294.796 132.798 289.349 133.571 283.951 133.147C283.151 133.085 282.041 132.726 281.715 133.894C281.436 134.897 281.785 135.927 282.453 136.713C283.216 137.61 284.296 137.515 285.248 137.113C290.077 135.072 294.962 135.67 299.873 136.678C302.365 137.189 304.865 137.656 307.877 138.244C306.533 136.644 305.336 135.818 303.817 134.913ZM116.195 61.345C117.304 63.0493 118.412 64.7536 119.815 66.9096C119.508 62.2375 119.516 58.1224 118.592 54.1036C118.25 52.6165 118.109 51.0077 116.901 49.8591C116.277 49.2653 115.653 48.4081 114.687 48.7669C113.754 49.1131 113.702 50.1176 113.646 51.0027C113.418 54.609 114.415 57.9216 116.195 61.345ZM278.029 123.883C275.199 123.579 272.687 124.407 270.044 125.906C272.918 128.824 276.161 130.258 279.757 131.015C280.294 131.129 280.614 130.874 280.815 130.341C281.676 128.047 280.619 125.287 278.029 123.883ZM26.1814 131.291C30.1732 131.358 34.1891 131.505 37.5364 127.849C31.0928 125.875 25.816 128.464 20.4194 130.294C20.4314 130.475 20.4433 130.657 20.4553 130.838C22.2357 130.986 24.0161 131.133 26.1814 131.291ZM42.4048 108.242C42.7092 109.301 42.6345 110.473 43.2405 111.523C46.9066 107.56 45.3016 97.9637 40.4967 95.1742C40.2211 99.609 41.584 103.723 42.4048 108.242ZM183.397 58.7989C185.062 55.8671 186.105 52.8137 185.158 49.3955C184.781 48.0376 184.462 46.3064 182.606 46.6649C180.702 47.0327 180.939 48.8025 181.06 50.2934C181.082 50.555 181.18 50.8144 181.269 51.0658C182.081 53.3759 182.346 55.754 182.231 58.1942C182.203 58.7948 181.972 59.4831 182.587 60.158C182.863 59.7087 183.067 59.3757 183.397 58.7989ZM177.033 79.9884C178.622 76.2204 179.57 72.3054 179.889 67.6652C177.24 72.4692 175.986 77.0653 176.078 82.049C176.355 81.451 176.633 80.853 177.033 79.9884ZM124.08 81.3854C125.536 84.8678 127.809 87.7531 130.681 90.7756C129.708 86.7699 126.911 82.2486 123.548 78.9748C123.436 79.7698 123.795 80.4224 124.08 81.3854ZM206.822 113.125C206.928 111.565 205.658 111.13 204.636 110.631C202.114 109.401 199.459 109.432 196.346 110.035C200.008 111.314 203.217 112.596 206.822 113.125ZM114.484 115.879C114.203 116.276 113.599 116.559 114.034 117.273C116.866 117.273 119.518 116.83 121.746 114.287C118.95 113.718 116.708 114.129 114.484 115.879ZM266.768 86.9035C266.768 86.4586 267.216 86.0735 266.955 85.5769C264.286 88.883 262.616 93.5203 262.818 97.215C264.503 93.9257 265.948 90.6903 266.768 86.9035ZM217.231 93.9208C216.247 91.6976 215.263 89.4744 214.13 86.9132C214.475 91.3756 216.063 95.0009 218.615 97.2934C218.161 96.1612 217.766 95.1755 217.231 93.9208ZM8.27456 134.507C9.25781 133.844 10.5083 133.549 11.3815 132.385C8.04987 132.77 5.2179 134.478 4.18456 136.726C5.54137 135.985 6.77574 135.311 8.27456 134.507ZM76.1129 110.127C75.5058 109.775 74.9683 109.788 74.6335 110.485C74.415 110.94 74.4599 111.443 74.8579 111.754C75.6787 112.397 76.553 112.968 77.6433 112.306C77.5483 111.294 76.867 110.835 76.1129 110.127ZM271.961 66.943C272.76 66.92 273.323 66.571 273.05 65.7183C272.826 65.015 272.175 65.2458 271.701 65.4833C270.833 65.9177 270.835 66.4195 271.961 66.943Z" fill="#489AAB"/>
</svg>
