<svg width="259" height="191" viewBox="0 0 259 191" fill="none" xmlns="http://www.w3.org/2000/svg">
<g clip-path="url(#clip0_649_487)">
<path opacity="0.1" d="M2.78003 91.2896C6.85617 107.043 15.4778 120.66 29.1025 127.261C57.4266 140.98 121.305 133.905 168.98 125.783C193.641 121.583 215.317 109.99 231.063 93.6761L2.78003 91.2896Z" fill="#489AAB"/>
<path opacity="0.1" d="M252.783 17.1376H226.625C225.384 17.1376 224.365 16.2177 224.365 15.0937C224.365 13.9696 225.384 13.0474 226.625 13.0474H231.15C229.906 13.0474 228.89 12.1275 228.89 11.0011C228.89 9.8747 229.906 8.95716 231.15 8.95716H227.921C226.677 8.95716 225.658 8.03727 225.658 6.91087C225.658 5.78448 226.677 4.86694 227.921 4.86694H241.574C238.544 3.5927 235.003 2.68689 230.922 2.21052C193.692 -2.11437 180.401 0.746206 175.712 3.68657C169.868 7.39721 163.376 9.97193 156.578 11.2757C133.608 15.563 90.6529 20.7209 51.7195 9.63299C32.369 4.11131 17.9863 13.4299 9.36707 29.007H257.327C257.003 24.4803 256.034 20.2985 254.255 16.6401C253.834 16.9654 253.316 17.1405 252.783 17.1376Z" fill="#489AAB"/>
<path opacity="0.1" d="M0.562456 58.4082C-0.442275 67.57 -0.100737 76.8294 1.57621 85.8923L231.239 93.4931C237.561 86.9362 242.932 79.5253 247.196 71.4767L0.562456 58.4082ZM91.3968 78.0145H86.8748C88.1185 78.0145 89.137 78.9368 89.137 80.0608C89.137 81.1849 88.1185 82.1048 86.8748 82.1048H60.7166C59.4753 82.1048 58.4568 81.1849 58.4568 80.0608C58.4568 78.9368 59.4753 78.0145 60.7166 78.0145H65.241C63.9973 78.0145 62.9812 77.0946 62.9812 75.9706C62.9812 74.8465 63.9973 73.9243 65.241 73.9243H62.0096C60.7659 73.9243 59.7475 73.0044 59.7475 71.8804C59.7475 70.7563 60.7659 69.8341 62.0096 69.8341H88.1678C89.4115 69.8341 90.4276 70.754 90.4276 71.8804C90.4276 73.0068 89.4115 73.9243 88.1678 73.9243H91.3968C92.6405 73.9243 93.6566 74.8442 93.6566 75.9706C93.6566 77.097 92.6405 78.0145 91.3968 78.0145Z" fill="#489AAB"/>
<path opacity="0.1" d="M257.336 29.1479L6.60043 34.6626C3.54978 41.7565 1.52696 49.7774 0.595337 58.0893H252.943C254.585 53.2263 255.804 48.2304 256.585 43.1575C257.338 38.2741 257.639 33.5503 257.336 29.1479ZM51.5037 47.2289H46.9817C48.2254 47.2289 49.2439 48.1512 49.2439 49.2752C49.2439 50.3993 48.2254 51.3215 46.9817 51.3215H20.8235C19.5821 51.3215 18.5637 50.3993 18.5637 49.2752C18.5637 48.1512 19.5821 47.2289 20.8235 47.2289H25.3479C24.1041 47.2289 23.088 46.309 23.088 45.185C23.088 44.0609 24.1041 43.1387 25.3479 43.1387H22.1165C20.8728 43.1387 19.8543 42.2188 19.8543 41.0948C19.8543 39.9707 20.8728 39.0485 22.1165 39.0485H48.2747C49.5184 39.0485 50.5345 39.9684 50.5345 41.0948C50.5345 42.2212 49.5184 43.1387 48.2747 43.1387H51.5037C52.7474 43.1387 53.7635 44.0609 53.7635 45.185C53.7635 46.309 52.7474 47.2289 51.5037 47.2289Z" fill="#489AAB"/>
<path opacity="0.1" d="M127.913 183.292C185.843 183.292 232.804 178.972 232.804 173.643C232.804 168.314 185.843 163.994 127.913 163.994C69.9836 163.994 23.0223 168.314 23.0223 173.643C23.0223 178.972 69.9836 183.292 127.913 183.292Z" fill="#489AAB"/>
<g opacity="0.1">
<path opacity="0.1" d="M198.231 66.6828C198.279 66.591 198.321 66.4962 198.357 66.3988C198.623 65.662 198.505 64.8524 198.508 64.0686C198.507 63.8072 198.532 63.5464 198.58 63.2896C198.364 63.7532 198.258 64.2611 198.273 64.7726C198.271 65.4039 198.346 66.0656 198.231 66.6828Z" fill="#082550"/>
<path opacity="0.1" d="M227.16 102.124C226.186 102.849 224.743 102.659 223.76 101.944C222.777 101.228 222.178 100.104 221.763 98.9609C221.244 97.5764 220.86 96.0135 219.677 95.1241C219.252 94.805 218.738 94.5961 218.323 94.277C217.384 93.5589 216.915 92.3738 216.577 91.2381C216.143 89.8066 215.8 88.3353 215.169 86.9836C214.538 85.6319 213.547 84.3741 212.182 83.7569C210.905 83.182 209.431 83.2196 208.11 82.7526C205.834 81.95 204.151 80.0375 201.891 79.1364C201.168 78.8315 200.482 78.4441 199.848 77.9818C198.735 77.2145 198.44 76.7803 198.275 75.4263C198.041 73.3941 195.976 71.6224 196.297 69.7075C196.245 69.8111 196.198 69.9177 196.159 70.0267C195.455 72.0917 197.801 73.962 198.036 76.128C198.188 77.482 198.505 77.9161 199.608 78.6835C200.243 79.1457 200.929 79.5332 201.652 79.838C203.912 80.7391 205.594 82.654 207.871 83.4542C209.192 83.9236 210.666 83.8837 211.942 84.4586C213.308 85.0758 214.289 86.3359 214.93 87.6852C215.57 89.0346 215.913 90.5012 216.337 91.9397C216.682 93.0755 217.135 94.2606 218.083 94.9786C218.508 95.2978 219.022 95.5066 219.437 95.8258C220.611 96.7152 221.005 98.278 221.524 99.6626C221.951 100.801 222.549 101.927 223.532 102.64C224.516 103.354 225.959 103.546 226.933 102.821C227.555 102.352 227.871 101.636 228.08 100.869C227.894 101.364 227.576 101.798 227.16 102.124Z" fill="#082550"/>
<path opacity="0.1" d="M231.983 95.0866C231.893 95.2549 231.854 95.4456 231.87 95.6357C232.4 95.1124 233.597 95.4198 234.015 94.7463C234.112 94.5799 234.15 94.3856 234.123 94.1948C233.578 94.7111 232.382 94.4037 231.983 95.0866Z" fill="#082550"/>
<path opacity="0.1" d="M228.535 99.0995C228.491 99.3342 228.446 99.5853 228.39 99.8293C229.826 100.278 231.485 99.1253 231.72 97.6704C231.15 98.7898 229.742 99.5383 228.535 99.0995Z" fill="#082550"/>
</g>
<path d="M189.358 94.7065C189.358 94.7065 186.619 97.4826 186.814 98.8132C187.009 100.144 189.63 104.323 193.385 102.077C193.385 102.077 196.867 95.5279 189.358 94.7065Z" fill="#575A89"/>
<path opacity="0.1" d="M200.57 177.865C199.887 177.891 196.006 177.865 196.006 177.865C195.949 177.806 195.896 177.743 195.847 177.677C196.839 177.339 198.984 176.832 200.57 177.865Z" fill="#082550"/>
<path opacity="0.1" d="M211.672 177.865C210.989 177.891 207.108 177.865 207.108 177.865C207.051 177.806 206.998 177.743 206.948 177.677C207.936 177.339 210.081 176.832 211.672 177.865Z" fill="#082550"/>
<path opacity="0.1" d="M197.452 105.82C197.435 105.902 197.151 107.151 196.719 109.077C196.888 107.432 197.123 106.252 197.452 105.82Z" fill="#082550"/>
<path opacity="0.1" d="M194.011 83.0503C194.011 83.0503 194.286 85.2421 193.347 85.7889C192.409 86.3357 194.011 83.0503 194.011 83.0503Z" fill="#082550"/>
<path opacity="0.1" d="M213.918 100.026C213.918 100.026 216.147 96.7407 216.462 97.6794C216.776 98.6181 213.918 100.026 213.918 100.026Z" fill="#082550"/>
<path opacity="0.1" d="M214.075 101.12C214.075 101.12 216.274 98.421 216.485 99.477C216.696 100.533 214.075 101.12 214.075 101.12Z" fill="#082550"/>
<path opacity="0.1" d="M206.92 82.4941C206.92 82.4941 210.222 82.7053 210.243 83.1747C210.264 83.644 206.92 82.4941 206.92 82.4941Z" fill="#082550"/>
<path opacity="0.1" d="M198.9 80.4927C198.9 80.4927 195.598 80.7039 195.577 81.1732C195.556 81.6425 198.9 80.4927 198.9 80.4927Z" fill="#082550"/>
<path opacity="0.1" d="M211.517 90.0883C211.485 90.0648 211.452 90.046 211.419 90.0249C212.264 90.7852 212.123 92.4466 211.086 93.8171C210.048 95.1875 208.474 95.7577 207.516 95.1429C207.547 95.1687 207.573 95.1969 207.606 95.2227C208.544 95.9408 210.187 95.3776 211.271 93.9602C212.355 92.5428 212.461 90.8087 211.517 90.0883Z" fill="#082550"/>
<path opacity="0.1" d="M194.497 80.9361L194.194 81.4054L193.422 80.9948L193.828 80.3706C194.097 80.4975 194.327 80.6925 194.497 80.9361Z" fill="#082550"/>
<path d="M190.632 100.869C191.799 100.869 192.744 100.228 192.744 99.4373C192.744 98.6467 191.799 98.0059 190.632 98.0059C189.466 98.0059 188.52 98.6467 188.52 99.4373C188.52 100.228 189.466 100.869 190.632 100.869Z" fill="#575A89"/>
<path d="M121.791 179.118C161.773 179.118 194.185 146.706 194.185 106.723C194.185 66.7411 161.773 34.3291 121.791 34.3291C81.8084 34.3291 49.3964 66.7411 49.3964 106.723C49.3964 146.706 81.8084 179.118 121.791 179.118Z" fill="#489AAB"/>
<path d="M159.776 143.104C159.776 154.532 141.81 144.08 122.549 144.08C103.287 144.08 83.8054 154.1 83.8054 142.672C83.8054 136.155 90.0147 127.093 98.9226 120.51C105.634 115.549 113.875 111.997 122.154 111.997C130.668 111.997 139.008 115.843 145.661 121.123C154.057 127.78 159.776 136.726 159.776 143.104Z" fill="#082550"/>
<path d="M145.659 121.118C135.42 119.576 116.903 117.696 98.9226 120.505C105.634 115.545 113.876 111.992 122.155 111.992C130.666 111.992 139.006 115.838 145.659 121.118Z" fill="#F6F8FB"/>
<path opacity="0.05" d="M83.8053 55.6206C83.8053 55.6206 61.9979 69.5621 62.1763 91.3695C62.3546 113.177 83.8053 55.6206 83.8053 55.6206Z" fill="#082550"/>
<path d="M194.157 16.2458C194.157 16.2458 174.398 15.056 176.728 28.9013C176.728 28.9013 176.259 31.3466 178.484 32.4589C178.484 32.4589 178.519 31.4334 180.509 31.7807C181.218 31.8993 181.939 31.934 182.656 31.8839C183.625 31.818 184.546 31.4374 185.279 30.7998C185.279 30.7998 190.834 28.5071 192.995 19.4279C192.995 19.4279 194.593 17.4473 194.53 16.9404L191.195 18.3625C191.195 18.3625 192.334 20.7678 191.43 22.7672C191.43 22.7672 191.322 18.4517 190.682 18.5432C190.552 18.5643 188.95 19.3762 188.95 19.3762C188.95 19.3762 190.909 23.5674 189.419 26.611C189.419 26.611 189.98 21.4483 188.325 19.679L185.979 21.0494C185.979 21.0494 188.269 25.3767 186.716 28.9084C186.716 28.9084 187.115 23.4923 185.486 21.3826L183.358 23.0417C183.358 23.0417 185.509 27.308 184.198 30.2366C184.198 30.2366 184.026 23.9311 182.898 23.4547C182.898 23.4547 181.037 25.0974 180.753 25.7709C180.753 25.7709 182.226 28.8661 181.314 30.4994C181.314 30.4994 180.753 26.2989 180.293 26.2754C180.293 26.2754 178.439 29.0586 178.244 30.9687C178.244 30.9687 178.326 28.1293 179.842 26.0103C179.842 26.0103 178.049 26.3177 177.005 27.4816C177.005 27.4816 177.294 25.5128 180.29 25.3415C180.29 25.3415 181.823 23.2295 182.234 23.1027C182.234 23.1027 179.242 22.8517 177.428 23.6566C177.428 23.6566 179.023 21.8003 182.78 22.6428L184.892 20.9297C184.892 20.9297 180.955 20.39 179.284 20.9861C179.284 20.9861 181.206 19.3434 185.458 20.5402L187.746 19.1721C187.746 19.1721 184.388 18.4493 182.386 18.7028C182.386 18.7028 184.498 17.5646 188.415 18.799L190.057 18.0645C190.057 18.0645 187.596 17.5811 186.875 17.506C186.155 17.4309 186.117 17.2291 186.117 17.2291C187.681 16.9749 189.284 17.161 190.747 17.7664C190.747 17.7664 194.216 16.464 194.157 16.2458Z" fill="#489AAB"/>
<path d="M173.891 10.0908C173.891 10.0908 164.974 9.55106 166.016 15.8072C166.016 15.8072 165.807 16.9125 166.809 17.4147C166.809 17.4147 166.823 16.9454 167.724 17.1096C168.044 17.1623 168.37 17.1781 168.693 17.1566C169.132 17.1253 169.548 16.9533 169.881 16.6661C169.881 16.6661 172.389 15.6289 173.365 11.5269C173.365 11.5269 174.088 10.6329 174.069 10.4029L172.563 11.0459C172.563 11.0459 173.079 12.1324 172.673 13.0358C172.673 13.0358 172.624 11.0858 172.335 11.1327C172.277 11.1327 171.552 11.5082 171.552 11.5082C171.552 11.5082 172.439 13.4019 171.77 14.7771C171.77 14.7771 172.023 12.4445 171.277 11.6443L170.216 12.2638C170.216 12.2638 171.251 14.2209 170.55 15.8166C170.55 15.8166 170.728 13.3691 169.993 12.4163L169.031 13.1649C169.031 13.1649 170.003 15.0915 169.411 16.415C169.411 16.415 169.334 13.5662 168.822 13.3503C168.822 13.3503 167.982 14.0918 167.853 14.3969C167.853 14.3969 168.52 15.8049 168.107 16.5347C168.107 16.5347 167.853 14.6363 167.637 14.6292C167.637 14.6292 166.8 15.8847 166.713 16.7412C166.753 15.9441 167.002 15.1715 167.433 14.5001C166.95 14.5915 166.505 14.8224 166.152 15.1643C166.152 15.1643 166.281 14.2749 167.64 14.1974C167.64 14.1974 168.332 13.2447 168.517 13.186C168.517 13.186 167.166 13.0734 166.347 13.4371C166.347 13.4371 167.067 12.597 168.766 12.9678L169.705 12.1957C169.705 12.1957 167.926 11.9611 167.17 12.2192C167.17 12.2192 168.039 11.4777 169.961 12.0197L170.993 11.4002C170.993 11.4002 169.477 11.074 168.571 11.1914C168.571 11.1914 169.526 10.6775 171.296 11.236L172.035 10.9027C172.035 10.9027 170.923 10.6845 170.599 10.6516C170.275 10.6188 170.254 10.5273 170.254 10.5273C170.958 10.4101 171.681 10.4913 172.342 10.7619C172.342 10.7619 173.917 10.1893 173.891 10.0908Z" fill="#489AAB"/>
<path opacity="0.1" d="M251.819 171.308C255.309 171.308 258.139 170.83 258.139 170.241C258.139 169.651 255.309 169.173 251.819 169.173C248.329 169.173 245.5 169.651 245.5 170.241C245.5 170.83 248.329 171.308 251.819 171.308Z" fill="#489AAB"/>
<path opacity="0.1" d="M10.9769 189.07C14.4671 189.07 17.2964 188.592 17.2964 188.002C17.2964 187.413 14.4671 186.935 10.9769 186.935C7.48671 186.935 4.65735 187.413 4.65735 188.002C4.65735 188.592 7.48671 189.07 10.9769 189.07Z" fill="#489AAB"/>
<path opacity="0.1" d="M47.6622 190.41C51.1524 190.41 53.9817 189.932 53.9817 189.342C53.9817 188.752 51.1524 188.274 47.6622 188.274C44.172 188.274 41.3427 188.752 41.3427 189.342C41.3427 189.932 44.172 190.41 47.6622 190.41Z" fill="#489AAB"/>
<path d="M237.988 183.279C243.199 183.279 247.424 182.564 247.424 181.683C247.424 180.802 243.199 180.087 237.988 180.087C232.776 180.087 228.552 180.802 228.552 181.683C228.552 182.564 232.776 183.279 237.988 183.279Z" fill="#489AAB"/>
<path d="M241.888 179.076C242.319 178.724 242.633 178.251 242.789 177.717C242.904 177.18 242.674 176.532 242.16 176.335C241.583 176.114 240.966 176.516 240.499 176.919C240.032 177.323 239.494 177.783 238.882 177.698C239.197 177.413 239.432 177.051 239.566 176.648C239.699 176.244 239.725 175.813 239.642 175.396C239.615 175.224 239.542 175.061 239.431 174.927C239.109 174.584 238.53 174.73 238.145 175C236.925 175.859 236.584 177.515 236.577 179.008C236.455 178.47 236.559 177.91 236.556 177.365C236.554 176.821 236.401 176.192 235.937 175.903C235.648 175.749 235.325 175.673 234.998 175.683C234.449 175.661 233.839 175.715 233.463 176.117C232.994 176.617 233.118 177.452 233.524 177.994C233.93 178.536 234.545 178.888 235.111 179.266C235.566 179.537 235.954 179.906 236.246 180.348C236.281 180.41 236.309 180.475 236.331 180.543H239.769C240.538 180.151 241.251 179.658 241.888 179.076Z" fill="#489AAB"/>
<path d="M13.9267 159.399C13.9267 159.399 15.215 161.084 13.3306 163.623C11.4463 166.162 9.89278 168.316 10.5146 169.903C10.5146 169.903 13.3564 165.176 15.6773 165.108C17.9981 165.04 16.4705 162.241 13.9267 159.399Z" fill="#489AAB"/>
<path opacity="0.1" d="M13.9267 159.399C14.0386 159.562 14.127 159.739 14.1895 159.927C16.447 162.579 17.6485 165.054 15.4802 165.115C13.4574 165.174 11.0215 168.788 10.4513 169.701C10.4712 169.771 10.4947 169.841 10.5217 169.91C10.5217 169.91 13.3635 165.183 15.6843 165.115C18.0052 165.047 16.4705 162.241 13.9267 159.399Z" fill="#082550"/>
<path d="M16.3226 161.546C16.3226 162.14 16.2545 162.621 16.1724 162.621C16.0902 162.621 16.0245 162.151 16.0245 161.546C16.0245 160.941 16.1067 161.232 16.1912 161.232C16.2756 161.232 16.3226 160.952 16.3226 161.546Z" fill="#FFD037"/>
<path d="M17.1345 162.255C16.6135 162.539 16.1606 162.71 16.1207 162.637C16.0808 162.565 16.4727 162.278 16.9937 161.994C17.5146 161.71 17.3081 161.917 17.348 161.994C17.3879 162.072 17.6648 161.971 17.1345 162.255Z" fill="#FFD037"/>
<path d="M7.11669 159.399C7.11669 159.399 5.82838 161.084 7.7104 163.623C9.59241 166.162 11.1482 168.316 10.5264 169.903C10.5264 169.903 7.68224 165.176 5.36374 165.108C3.04524 165.04 4.57057 162.241 7.11669 159.399Z" fill="#489AAB"/>
<path opacity="0.1" d="M7.11667 159.399C7.00377 159.561 6.91522 159.739 6.85385 159.927C4.59637 162.579 3.39253 165.054 5.56319 165.115C7.58366 165.174 10.0218 168.788 10.5897 169.701C10.5706 169.771 10.5479 169.841 10.5217 169.91C10.5217 169.91 7.67753 165.183 5.35903 165.115C3.04053 165.047 4.57055 162.241 7.11667 159.399Z" fill="#082550"/>
<path d="M4.7207 161.546C4.7207 162.14 4.78641 162.621 4.86854 162.621C4.95068 162.621 5.01638 162.151 5.01638 161.546C5.01638 160.941 4.93425 161.232 4.85212 161.232C4.76998 161.232 4.7207 160.952 4.7207 161.546Z" fill="#FFD037"/>
<path d="M3.89706 162.255C4.41802 162.539 4.87328 162.71 4.91317 162.637C4.95306 162.565 4.56117 162.278 4.04021 161.994C3.51925 161.71 3.72341 161.917 3.68587 161.994C3.64832 162.072 3.37611 161.971 3.89706 162.255Z" fill="#FFD037"/>
<path d="M5.13135 169.689C5.13135 169.689 8.73581 169.579 9.82466 168.804C10.9135 168.03 15.3698 167.108 15.6397 168.335C15.9095 169.562 21.0558 174.507 16.9867 174.54C12.9176 174.572 7.53198 173.904 6.44782 173.244C5.36367 172.585 5.13135 169.689 5.13135 169.689Z" fill="#A8A8A8"/>
<path opacity="0.2" d="M17.0547 174.119C12.9856 174.152 7.60003 173.483 6.51588 172.824C5.68985 172.322 5.36132 170.517 5.25103 169.684H5.13135C5.13135 169.684 5.36601 172.592 6.44313 173.251C7.52025 173.91 12.9129 174.579 16.982 174.546C18.1553 174.546 18.5613 174.117 18.5401 173.5C18.3759 173.878 17.93 174.112 17.0547 174.119Z" fill="#082550"/>
<path d="M96.0525 97.2316C97.43 97.1541 103.914 96.666 108.032 94.317C108.694 93.9279 109.441 93.7078 110.208 93.6764C111.517 93.6388 113.024 94.1856 112.059 97.2456C110.496 102.251 101.422 107.883 95.7897 107.571C90.3736 107.271 83.9485 105.088 79.7057 97.4146C79.2992 96.6763 79.099 95.8422 79.1261 94.9999C79.1754 93.4511 79.7386 91.5104 82.6461 93.674C86.5744 96.5956 94.0274 97.1494 95.5222 97.2316C95.6989 97.241 95.8759 97.241 96.0525 97.2316Z" fill="#082550"/>
<path d="M148.148 97.2316C149.526 97.1541 156.01 96.666 160.128 94.317C160.789 93.9279 161.537 93.7078 162.303 93.6764C163.613 93.6388 165.119 94.1856 164.155 97.2456C162.592 102.251 153.517 107.883 147.886 107.571C142.469 107.271 136.044 105.088 131.802 97.4146C131.395 96.6763 131.195 95.8422 131.222 94.9999C131.271 93.4511 131.834 91.5104 134.742 93.674C138.67 96.5956 146.123 97.1494 147.618 97.2316C147.795 97.241 147.972 97.241 148.148 97.2316Z" fill="#082550"/>
</g>
<defs>
<clipPath id="clip0_649_487">
<rect width="258.137" height="190.41" fill="white" transform="translate(0.00158691)"/>
</clipPath>
</defs>
</svg>
