<svg width="43" height="45" viewBox="0 0 43 45" fill="none" xmlns="http://www.w3.org/2000/svg">
<path d="M22.3786 3.45576C21.8834 2.54488 20.5 2.89659 20.5 3.93336V13.7967V28.5883V36.3914C20.5 36.7652 20.7085 37.1079 21.0406 37.2796L33.1893 43.5634C33.9275 43.9452 34.7822 43.3123 34.6323 42.4949L32.1735 29.0852C32.1162 28.7727 32.2108 28.4516 32.4283 28.2201L41.3402 18.7345C41.8614 18.1797 41.5964 17.2692 40.8588 17.0809L28.4227 13.9047C28.1532 13.8358 27.9245 13.6578 27.7916 13.4134L22.3786 3.45576Z" fill="#336DFF" fill-opacity="0.1"/>
<path d="M19.3572 3.12136L19.3572 3.12141L19.3514 3.1272C19.1873 3.29143 19.0517 3.45349 18.6574 4.22893C18.2604 5.00949 17.6254 6.3617 16.4522 8.87397C15.7584 10.3657 15.123 11.7219 14.6573 12.7056C14.4245 13.1972 14.2336 13.597 14.0988 13.8745C14.0316 14.0128 13.9772 14.1231 13.9381 14.1999C13.919 14.2374 13.9012 14.2716 13.8863 14.2983C13.8797 14.3102 13.869 14.3291 13.8566 14.3483C13.8515 14.3561 13.8376 14.3775 13.8174 14.4017C13.8085 14.4124 13.7858 14.4391 13.7518 14.4674C13.7345 14.4817 13.7036 14.5056 13.6606 14.5278C13.6208 14.5483 13.5399 14.5836 13.431 14.5836C13.4391 14.5836 13.4373 14.5838 13.42 14.5856C13.4018 14.5876 13.3664 14.5915 13.3075 14.599C13.2114 14.6112 13.0787 14.6294 12.9131 14.6529C12.5826 14.7 12.1285 14.7676 11.5913 14.8493C10.5172 15.0126 9.1153 15.2316 7.71433 15.4542C6.31335 15.6768 4.91441 15.9029 3.84627 16.0802C3.31199 16.1689 2.86171 16.2452 2.53573 16.3027C2.37247 16.3315 2.24233 16.3553 2.14915 16.3733C2.06314 16.39 2.0327 16.3975 2.03251 16.3968C2.03247 16.3967 2.03379 16.3961 2.03623 16.3953L2.02986 16.3973C1.54752 16.5535 0.98114 17.0781 0.720148 17.6549C0.464322 18.2298 0.429263 19.0097 0.626413 19.6289C0.693795 19.8268 0.806451 20.0492 1.50598 20.8211C2.20526 21.5927 3.4385 22.8595 5.68155 25.1464L5.3246 25.4965L5.68156 25.1464L9.15842 28.6912L9.33637 28.8727L9.29469 29.1234L8.32014 34.984C7.78848 38.2044 7.52395 39.8209 7.44527 40.7497C7.40631 41.2096 7.41698 41.4627 7.4499 41.6398C7.48122 41.8082 7.53663 41.934 7.64619 42.1533L7.64627 42.1533L7.65027 42.1617C7.7604 42.3927 7.9699 42.6616 8.22903 42.899C8.49006 43.1382 8.75907 43.3067 8.96167 43.3755C9.22487 43.4645 9.57749 43.5097 9.93583 43.4982C10.2978 43.4867 10.6145 43.419 10.8171 43.3226L10.8171 43.3226L10.8212 43.3206C11.0612 43.2092 13.3693 41.9391 15.9795 40.4776L15.9795 40.4776L20.7028 37.833L20.9452 37.6972L21.1885 37.8314L26.1367 40.5604L26.1369 40.5605C27.4947 41.3101 28.768 42.0058 29.7238 42.5232C30.2017 42.782 30.5997 42.9958 30.8887 43.1494C31.0334 43.2263 31.1498 43.2875 31.2348 43.3315C31.3295 43.3805 31.3658 43.3978 31.3656 43.3977L31.3673 43.3985C31.4896 43.4505 31.7815 43.4967 32.156 43.4945C32.5196 43.4923 32.8616 43.4452 33.0607 43.3765L33.0633 43.3756C33.2644 43.3074 33.5332 43.1376 33.7954 42.8963C34.0554 42.657 34.2659 42.3871 34.3763 42.1589L34.3772 42.157C34.4867 41.9332 34.5414 41.8103 34.5727 41.6485C34.6052 41.4808 34.6171 41.2423 34.5811 40.8047C34.5083 39.9189 34.2556 38.3736 33.7426 35.2653L33.7424 35.2639C33.4485 33.4502 33.1757 31.7855 32.9952 30.6842C32.8658 29.8945 32.7839 29.3945 32.7757 29.3371L32.7738 29.3234L32.7726 29.3097C32.7602 29.1675 32.7986 29.0459 32.8387 28.957C32.8785 28.869 32.9338 28.7827 32.9946 28.6987C33.1165 28.5304 33.3109 28.3033 33.6025 27.985C34.1904 27.3434 35.23 26.2702 37.0273 24.4342C38.5168 22.9109 39.5602 21.8246 40.2502 21.0806C40.5955 20.7083 40.8488 20.4254 41.0239 20.2184C41.1115 20.1148 41.1765 20.0338 41.2225 19.9723C41.2678 19.9118 41.2838 19.8844 41.2858 19.881C41.401 19.6421 41.4602 19.4 41.4868 18.8245L41.4869 18.8216C41.5058 18.4575 41.5041 18.2923 41.4824 18.1614C41.4622 18.0391 41.4209 17.9237 41.3047 17.6633L41.3036 17.6609C41.045 17.0728 40.4812 16.5539 39.9745 16.3872L39.9725 16.3866C39.973 16.3867 39.9721 16.3865 39.9697 16.3859C39.959 16.3833 39.917 16.373 39.8265 16.3546C39.7283 16.3346 39.5951 16.3094 39.4297 16.2796C39.0994 16.2201 38.6493 16.1435 38.111 16.0552C37.0349 15.8786 35.6129 15.6563 34.106 15.4315C32.5953 15.2061 31.2129 14.9901 30.2015 14.8243C29.6961 14.7415 29.2814 14.6709 28.989 14.6179C28.8434 14.5915 28.7244 14.5687 28.6385 14.5506C28.5965 14.5417 28.5562 14.5326 28.5226 14.5238C28.5067 14.5196 28.4837 14.5132 28.4594 14.5047C28.4477 14.5006 28.4271 14.4931 28.4032 14.4817L28.402 14.4812C28.3881 14.4747 28.3224 14.4438 28.2593 14.3807L28.613 14.0273L28.2593 14.3807C28.2242 14.3455 28.2017 14.3121 28.1977 14.3063C28.1891 14.2937 28.1822 14.2826 28.1779 14.2755C28.169 14.2608 28.1607 14.2459 28.1539 14.2336C28.1399 14.208 28.123 14.1756 28.1044 14.1391C28.0666 14.0652 28.0151 13.9616 27.9521 13.8331C27.8257 13.5754 27.6491 13.2097 27.4357 12.7638C27.0086 11.8715 26.4317 10.6535 25.8082 9.3258C24.5628 6.67406 23.3998 4.22579 23.2215 3.87728C22.8681 3.21369 22.3642 2.76308 21.9112 2.60965L21.911 2.60957C21.7101 2.54143 21.3657 2.49788 20.9827 2.50008C20.6049 2.50225 20.261 2.54851 20.0556 2.61661C19.8907 2.67979 19.5995 2.87077 19.3572 3.12136Z" stroke="#489AAB"/>
</svg>
