<svg version="1.1" id="Layer_1" xmlns="http://www.w3.org/2000/svg" xmlns:xlink="http://www.w3.org/1999/xlink" x="0px" y="0px"
	 width="100%" viewBox="0 0 448 432" enable-background="new 0 0 448 432" xml:space="preserve">
<path fill="#489AAB" opacity="1.000000" stroke="none" 
	d="
M235.899841,21.177425 
	C244.031937,7.762821 259.913086,3.190614 273.279877,10.193994 
	C275.325592,11.265831 277.941711,12.351499 278.600433,14.540715 
	C280.375793,20.440903 285.066437,23.110060 289.573181,26.492159 
	C297.108459,32.147018 293.946472,45.889919 284.377899,51.213516 
	C280.934998,53.129002 277.154236,53.827557 273.399536,54.180954 
	C270.569183,54.447353 269.159637,55.710960 268.331390,58.100159 
	C263.875305,70.954247 259.436493,83.814308 254.815521,97.181885 
	C259.675690,97.320496 263.690369,95.923370 267.775909,94.885582 
	C273.080231,93.538208 278.317169,91.779167 283.865509,91.691353 
	C290.107788,91.592560 294.755554,95.093414 296.175323,101.194160 
	C298.348114,110.530739 300.404236,119.895866 302.375336,129.277145 
	C302.986389,132.185410 304.453278,132.638565 307.044434,131.863434 
	C316.099548,129.154678 325.187469,126.555511 334.260376,123.906052 
	C334.898285,123.719772 335.498901,123.375870 336.144989,123.251999 
	C347.258881,121.121368 352.321045,124.140678 349.656769,135.729538 
	C346.110687,151.153931 340.720642,166.005310 335.761719,180.990326 
	C332.942322,189.510193 329.634064,197.882309 327.149963,206.495193 
	C324.636169,215.211029 318.399353,219.640564 310.521423,222.249466 
	C295.382568,227.262894 280.129486,231.930359 264.946930,236.813263 
	C248.343033,242.153259 231.792618,247.660690 215.169006,252.938004 
	C196.167694,258.970123 177.134735,264.905518 158.065659,270.719360 
	C151.921036,272.592712 146.499588,270.783508 142.265625,265.996857 
	C140.183441,263.642914 138.492813,260.942749 136.623459,258.400360 
	C134.345963,255.302887 131.720657,254.643616 128.561707,257.174988 
	C127.657021,257.899902 126.688286,258.853241 125.633949,259.035065 
	C115.972137,260.701141 110.115524,267.891327 103.255524,273.834869 
	C81.522987,292.664001 49.985806,282.728088 44.737980,253.518784 
	C42.414009,240.583633 45.499840,229.227371 55.903862,220.883270 
	C67.245369,211.787308 79.990891,210.092499 93.348671,216.298752 
	C95.841064,217.456787 98.112793,219.435333 99.997253,221.484909 
	C104.021629,225.861908 108.784927,227.072952 114.405220,225.856430 
	C115.048981,225.717102 115.729759,225.731812 116.394539,225.709122 
	C124.585472,225.429428 124.687782,225.151245 121.779343,217.553741 
	C118.506737,209.004990 116.455780,200.084061 114.237587,191.223801 
	C109.906601,173.924377 105.564018,156.627243 101.375221,139.293167 
	C100.208511,134.465088 99.364784,129.536438 98.729691,124.607948 
	C97.891151,118.100647 101.588699,112.274117 108.212601,109.862450 
	C134.609497,100.251770 161.573395,92.530357 188.915558,86.129822 
	C195.308853,84.633217 199.400208,87.133537 201.638077,93.445007 
	C203.303207,98.141106 204.950287,102.843781 206.570938,107.555389 
	C207.383926,109.918922 208.774521,110.385231 211.188980,109.677521 
	C219.791382,107.156067 228.449478,104.822884 237.101135,102.472305 
	C239.700211,101.766151 240.921356,100.409111 240.799423,97.506401 
	C240.317413,86.030800 239.915939,74.548767 239.734207,63.065170 
	C239.665405,58.716614 236.298492,59.102596 233.836288,58.490360 
	C228.257050,57.103062 223.583725,54.928123 221.428177,49.002789 
	C218.531815,41.041039 221.659683,31.872253 229.336670,28.791286 
	C233.077499,27.289986 234.927444,25.110065 235.899841,21.177425 
M157.684402,252.240540 
	C158.568039,250.451355 159.674210,248.736572 160.301132,246.861557 
	C167.146423,226.387878 174.911530,206.226944 180.891495,185.456131 
	C183.792831,175.378632 188.627655,167.551620 200.204178,164.370682 
	C230.275574,156.107773 259.684723,145.556046 289.845612,137.531601 
	C294.340729,136.335648 296.358978,133.446960 295.480286,129.019928 
	C293.643677,119.766701 291.519196,110.568634 289.804291,101.294044 
	C288.952850,96.689247 286.495392,95.540001 282.335602,96.597397 
	C273.982025,98.720810 265.687256,101.161003 257.235291,102.774155 
	C253.252167,103.534370 251.589142,105.575462 250.467682,108.942856 
	C249.388550,112.183098 248.479538,115.563759 245.753052,117.858223 
	C239.678757,116.063637 242.986771,110.237274 240.833237,106.758774 
	C230.585800,109.146400 220.705078,111.905502 210.983261,115.221390 
	C205.473602,117.100609 203.055573,116.077400 200.963455,110.572243 
	C199.135468,105.762154 197.163132,100.974556 195.813492,96.024628 
	C194.599243,91.571320 191.787262,90.513466 187.949326,91.433678 
	C179.085571,93.558922 170.214737,95.706055 161.470490,98.266785 
	C147.295227,102.417961 133.252518,107.020599 119.088875,111.213135 
	C110.434860,113.774780 107.167923,119.177483 109.823265,127.849037 
	C114.686203,143.729980 118.202156,159.955093 122.252678,176.042755 
	C122.609367,177.459427 123.936691,179.091980 121.578201,181.475449 
	C115.185692,163.047821 111.958298,144.292664 105.861610,126.376968 
	C112.407890,156.839172 121.047684,186.739883 129.996689,216.570877 
	C128.361603,207.989700 125.334969,199.711243 124.973167,190.870667 
	C127.391220,193.592972 128.235779,196.951889 129.021561,200.253799 
	C133.308685,218.268341 140.056335,235.455124 146.586472,252.711227 
	C147.675827,255.589890 148.794296,259.377197 152.541611,259.277222 
	C155.846024,259.189056 155.921738,255.203430 157.684402,252.240540 
M342.254303,141.931747 
	C343.048126,139.056564 344.200714,136.225311 344.559326,133.296814 
	C345.254150,127.622879 343.559814,126.126526 338.108215,127.788254 
	C312.720001,135.526901 287.382629,143.432343 262.019470,151.253342 
	C244.275665,156.724792 226.670227,162.742096 208.706436,167.362625 
	C199.498688,169.730957 194.935806,174.794708 192.506348,183.364090 
	C187.664062,200.444122 182.889008,217.556702 176.500107,234.154449 
	C172.946503,243.386368 170.352707,252.981384 165.040955,262.464203 
	C167.482239,262.016357 168.950455,261.904053 170.317459,261.471741 
	C183.110397,257.425812 195.902954,253.377121 208.661942,249.225754 
	C221.906281,244.916458 235.093994,240.432968 248.341095,236.132370 
	C269.177734,229.367844 290.278381,223.439789 310.957642,216.159637 
	C316.011719,214.380356 319.086609,211.493866 320.724915,206.521805 
	C327.743439,185.221619 334.865021,163.955429 342.254303,141.931747 
M99.573494,268.090851 
	C105.494400,261.381927 112.070061,255.842896 121.297668,254.085144 
	C124.431221,253.488251 127.674599,251.895355 127.582481,247.141556 
	C119.609612,247.945404 112.178749,250.253403 104.651917,252.053146 
	C103.480042,252.333359 102.678612,253.209106 102.287277,254.428375 
	C101.785355,255.992203 100.682831,256.588959 99.205147,255.809830 
	C97.747070,255.041016 97.689011,253.727554 98.407150,252.382370 
	C100.183296,249.055344 99.236496,246.358597 96.515587,244.083740 
	C95.444618,243.188339 94.289009,242.161453 95.121056,240.752518 
	C96.008148,239.250351 97.434349,239.847595 98.573807,240.669296 
	C99.733017,241.505219 101.034698,241.803757 102.362030,241.609161 
	C109.681786,240.536057 116.990433,239.387146 124.545151,238.227020 
	C123.610405,233.265396 121.217331,230.456055 116.625206,231.349991 
	C106.303658,233.359222 98.384499,229.416672 90.871300,222.773193 
	C81.403214,214.401123 60.669804,219.549088 55.456078,231.222046 
	C54.778801,232.738403 53.843899,234.155777 55.723423,236.096237 
	C60.777958,241.314651 60.159489,244.058472 53.506863,247.599121 
	C56.876064,248.698746 59.853039,249.754440 60.740780,253.728287 
	C62.197891,260.250793 63.443676,266.941681 69.281822,272.710114 
	C64.727577,271.977478 63.517120,269.462433 62.174412,266.996063 
	C59.982826,262.970398 59.901108,258.341583 58.348698,254.142990 
	C57.638866,252.223221 56.742741,249.973465 54.251186,250.734222 
	C51.390221,251.607788 52.120209,254.291290 52.807945,256.229065 
	C53.916252,259.351868 55.294445,262.422943 56.927731,265.306824 
	C61.110348,272.691864 67.451775,276.576630 76.069611,276.734131 
	C84.793167,276.893524 92.315033,273.917358 99.573494,268.090851 
M272.379456,37.531681 
	C269.744568,37.291573 266.605988,37.543221 265.812134,34.243771 
	C265.076965,31.188231 266.217987,28.352049 268.524902,26.099894 
	C269.968658,24.690420 271.512024,23.366209 273.502594,22.884531 
	C276.930511,22.055040 276.686981,19.860754 275.360443,17.610748 
	C274.459290,16.082275 273.175140,14.597680 271.712585,13.612575 
	C263.947571,8.382346 248.798828,10.934526 243.113968,18.467810 
	C241.180679,21.029692 238.784302,23.547747 239.056854,27.335855 
	C240.360565,27.902914 241.579819,28.413071 242.782288,28.960157 
	C246.019180,30.432840 247.636047,32.859898 247.288956,36.503700 
	C247.071915,38.782135 245.408310,39.692505 243.603134,40.001110 
	C240.091812,40.601383 237.520859,39.003349 235.793457,35.927952 
	C234.922287,34.376991 234.547699,32.446411 232.734085,31.593657 
	C225.745514,34.835854 223.441437,40.377033 225.831268,48.057835 
	C227.675751,53.985905 232.449158,56.178169 239.753677,55.313030 
	C242.927246,54.937160 246.248749,54.954353 250.078476,54.470081 
	C249.369080,55.506729 249.183105,56.124229 248.835464,56.235203 
	C242.597733,58.226357 242.769547,62.710518 244.123779,67.819077 
	C244.498428,69.232330 244.235352,70.806091 244.339188,72.301056 
	C245.068146,82.797729 245.816544,93.293045 246.658707,105.202591 
	C252.837067,88.112434 258.690063,72.385391 264.140228,56.519981 
	C265.497772,52.568184 267.408020,50.780216 271.566193,50.801796 
	C277.159271,50.830818 281.945404,48.614990 285.722961,44.459229 
	C290.623779,39.067734 290.614990,26.902050 281.627838,26.248901 
	C280.341888,31.097429 278.873779,35.942268 272.379456,37.531681 
M106.088272,249.361359 
	C112.235085,247.906937 118.365936,246.379532 124.535690,245.030029 
	C127.451408,244.392258 128.671127,243.178421 127.000053,240.094070 
	C119.560265,241.175064 112.199539,242.319427 104.814430,243.275314 
	C102.365700,243.592285 101.211777,244.584076 101.366280,247.112534 
	C101.535919,249.888763 103.404716,249.684570 106.088272,249.361359 
M173.514908,230.847244 
	C170.154602,239.619308 166.794312,248.391357 163.434021,257.163422 
	C169.550873,246.196152 173.110138,234.258972 176.595581,222.289886 
	C175.670303,224.904648 174.745026,227.519409 173.514908,230.847244 
M185.177628,194.513489 
	C182.923416,201.991913 180.669205,209.470322 178.415009,216.948746 
	C178.658112,217.020767 178.901215,217.092804 179.144302,217.164841 
	C183.241547,204.114120 187.338791,191.063400 191.436035,178.012695 
	C188.338501,182.881760 186.805542,188.287552 185.177628,194.513489 
M275.721405,29.593706 
	C275.783386,28.679552 276.812866,27.796940 275.827637,26.841898 
	C270.876801,28.677515 270.612183,29.031897 270.738678,33.740494 
	C273.365021,33.947098 274.517426,32.167862 275.721405,29.593706 
M53.088886,243.904877 
	C55.285122,244.845993 56.259907,243.417908 56.431057,241.726715 
	C56.626968,239.790787 55.634991,238.347809 53.387798,238.304123 
	C52.476326,240.866318 52.476326,240.866318 53.088886,243.904877 
z"/>
<path fill="#489AAB" opacity="1.000000" stroke="none" 
	d="
M214.810989,308.761047 
	C220.585480,309.996490 225.891373,311.306580 231.364105,311.854919 
	C235.157547,312.235016 236.802765,314.483398 236.361572,318.385681 
	C233.665619,342.230286 226.839767,364.280640 208.880066,381.438293 
	C201.567581,388.424255 194.636490,395.807800 185.933029,401.287170 
	C182.419876,403.498901 179.111923,403.910675 175.557312,402.973450 
	C147.297836,395.522400 119.403763,386.870361 91.866539,377.079559 
	C90.394081,376.556030 88.488808,376.377411 88.009827,373.901367 
	C91.597679,370.233276 97.786423,370.203613 101.343781,365.189209 
	C94.529510,361.428009 87.759224,357.691071 80.988930,353.954132 
	C81.080421,353.502716 81.171906,353.051331 81.263397,352.599915 
	C88.830452,350.242340 96.050880,347.109650 103.221924,343.810883 
	C116.938454,337.501068 129.082657,328.911407 140.568253,319.292053 
	C145.574493,315.099243 149.586914,309.929077 152.885315,304.354004 
	C154.730652,301.234955 156.994827,300.229736 160.235214,300.704987 
	C170.082794,302.149170 179.919220,303.669556 189.763962,305.133362 
	C197.963730,306.352600 206.169128,307.533875 214.810989,308.761047 
M99.376968,352.900482 
	C96.748718,352.396698 94.809715,353.516052 92.553146,355.524658 
	C97.575668,357.891602 102.036179,359.993713 107.551498,362.592926 
	C105.271629,359.019470 102.341270,358.855865 100.154549,357.485870 
	C97.720192,355.960724 97.939407,354.565460 100.680252,352.788269 
	C102.485199,352.046539 104.343536,351.411713 106.084633,350.542145 
	C110.552277,348.310791 115.643623,347.123047 119.690216,342.837372 
	C129.442154,338.100006 138.302429,332.150452 145.565674,324.029114 
	C142.965836,325.771423 140.525543,327.709595 137.926910,329.476807 
	C131.520828,333.833191 125.318245,338.488831 118.323380,343.236511 
	C111.992828,346.071259 105.117546,347.886810 99.376968,352.900482 
M108.238358,358.254944 
	C126.379463,367.084015 144.756516,375.366730 163.438019,383.038300 
	C164.921188,380.783752 164.563446,379.212982 164.272507,377.568939 
	C162.048767,365.002747 165.271667,359.006134 176.979691,354.821716 
	C180.184189,353.676453 179.868683,352.193146 178.613159,350.028717 
	C176.779816,346.868195 174.806015,343.787903 173.015457,340.604034 
	C168.396973,332.391815 170.283127,326.258118 178.758118,322.348602 
	C183.920303,319.967255 189.216629,317.876740 195.524185,315.201080 
	C184.516174,313.165314 174.782654,311.386871 165.060028,309.550873 
	C162.831772,309.130066 161.744446,310.380157 160.646545,311.992920 
	C147.540482,331.244812 128.782730,343.142090 108.002922,352.418976 
	C106.303093,353.177856 104.067200,353.271118 103.253204,355.498749 
	C104.390991,357.011078 106.174980,357.158997 108.238358,358.254944 
M216.655426,337.196686 
	C219.003723,331.602203 221.746658,326.146881 223.330353,319.593079 
	C215.034851,318.404053 207.404022,314.896271 199.490021,317.386200 
	C193.031937,319.418030 186.871048,322.469788 180.909286,325.803955 
	C174.778595,329.232697 173.726761,332.048737 176.976807,338.228607 
	C179.056656,342.183380 181.622574,345.879974 183.899811,349.734131 
	C186.385300,353.940826 185.311661,356.837738 180.861328,358.175201 
	C169.400360,361.619568 164.054916,372.655090 168.363541,383.976379 
	C190.820450,372.310760 203.827911,364.560089 216.655426,337.196686 
M215.673492,346.005371 
	C212.337234,351.794556 208.935562,357.543365 205.194275,363.062073 
	C219.259964,350.871765 225.266937,334.385895 230.541336,316.974670 
	C227.926117,316.285278 226.204590,315.677795 224.431107,315.387482 
	C204.124359,312.063263 183.810837,308.780212 163.494797,305.513092 
	C162.027405,305.277100 160.367615,304.968109 159.319916,306.381470 
	C157.075394,309.409302 154.966095,312.537354 152.801422,315.624359 
	C155.740967,314.306335 157.072098,311.771606 158.636139,309.451843 
	C160.006302,307.419647 161.770294,306.379089 164.150085,307.155090 
	C167.829391,308.354736 171.660599,308.459717 175.427231,309.049652 
	C191.006500,311.489685 206.564453,314.065674 222.140182,316.528839 
	C226.217865,317.173706 226.947678,319.575623 225.824585,323.019043 
	C223.292618,330.782043 219.639267,338.061523 215.673492,346.005371 
M145.701111,380.351471 
	C151.377075,383.108826 157.051437,385.869507 162.729904,388.621704 
	C164.563721,389.510498 166.454712,390.253052 168.435822,389.138458 
	C174.615372,385.661682 181.084366,382.653717 186.510223,377.911316 
	C181.507370,380.342651 176.603165,382.965515 171.835800,385.817169 
	C169.497467,387.215851 167.463898,387.499207 164.857483,386.361481 
	C159.249252,383.913422 153.487930,381.813599 147.769974,379.621552 
	C146.711639,379.215820 145.384369,378.569855 144.504669,378.899078 
	C143.585922,379.242889 144.691101,379.795868 145.701111,380.351471 
z"/>
<path fill="#489AAB" opacity="1.000000" stroke="none" 
	d="
M304.010620,297.341614 
	C301.856995,297.348389 300.186340,297.439240 298.528503,297.331818 
	C296.623169,297.208313 294.115021,298.048737 293.195801,295.720520 
	C292.330414,293.528625 294.417389,292.016663 295.712921,290.654083 
	C301.197296,284.885925 306.572449,278.951416 314.765015,276.809540 
	C316.888611,276.254333 319.114838,275.419189 321.471313,272.504089 
	C315.354279,272.870758 310.190338,272.500031 305.378906,273.630280 
	C298.400757,275.269501 291.363586,274.699982 284.394806,275.485016 
	C276.426208,276.382690 268.982635,274.484009 261.692261,271.646973 
	C257.620514,270.062500 257.241058,268.329865 260.777771,266.086243 
	C267.614410,261.749237 274.385345,257.326904 282.948730,256.698303 
	C305.623840,255.033661 328.182373,252.062820 350.879822,250.543777 
	C358.966339,250.002594 366.989075,248.459244 375.026978,247.278412 
	C376.867798,247.007965 379.080261,246.302826 380.374023,247.432480 
	C385.080139,251.541748 389.175232,248.551636 393.457764,246.843430 
	C396.234100,245.735992 398.978760,244.506561 401.831818,243.643021 
	C407.633575,241.886993 411.561066,244.143188 413.262268,249.818146 
	C414.454987,253.796860 413.500244,256.465973 409.420380,258.137177 
	C384.844635,268.203979 361.044159,280.135651 335.811096,288.630859 
	C330.773590,290.326782 325.726868,292.143524 320.969757,294.484497 
	C315.668030,297.093506 310.212158,297.681946 304.010620,297.341614 
M400.394867,249.012817 
	C398.189911,248.112640 396.014191,248.870972 395.329956,250.743591 
	C394.151917,253.967422 397.374878,256.094513 397.886230,258.774078 
	C402.030151,259.054840 399.846558,255.485825 400.949951,253.980362 
	C401.713409,254.590195 402.088654,254.889923 402.790192,255.450287 
	C402.484741,253.663605 402.264923,252.378036 402.600586,251.438049 
	C403.253326,252.371597 403.887329,253.319016 404.563843,254.235001 
	C405.321625,255.260971 406.283997,255.769180 407.555603,255.187622 
	C408.670074,254.677948 409.620697,253.883362 409.483948,252.588257 
	C409.242523,250.301971 409.013367,247.655029 406.666840,246.659668 
	C404.348724,245.676376 402.117798,246.430969 400.394867,249.012817 
M279.684906,270.129059 
	C282.754547,272.805786 286.307495,271.695770 289.697540,271.281311 
	C301.890503,269.790527 314.067322,268.167999 326.254608,266.629761 
	C336.502502,265.336334 347.319183,265.400024 353.590332,254.691254 
	C352.981171,254.612671 352.337982,254.411789 351.717438,254.466705 
	C330.413422,256.352203 309.102020,258.163208 287.813782,260.214111 
	C278.601044,261.101685 278.508636,261.453033 278.191803,269.741547 
	C274.753326,268.361328 276.653076,265.304901 276.346191,262.760498 
	C273.222229,262.963074 271.536743,265.217896 269.397949,266.524933 
	C268.065277,267.339325 267.980011,269.446869 269.238373,269.781036 
	C272.370880,270.613037 275.693054,273.652405 279.684906,270.129059 
M363.721832,273.113098 
	C371.351166,269.793121 378.860901,266.150757 386.650055,263.261719 
	C392.238220,261.189056 392.920471,258.321198 389.689514,253.584686 
	C389.150879,253.680908 388.489441,253.700745 387.901123,253.918350 
	C364.054382,262.738708 340.252594,271.683167 316.338013,280.315186 
	C312.021851,281.873108 310.969299,284.305115 312.374908,288.086029 
	C313.754150,291.795959 316.548218,292.264252 320.085754,290.813751 
	C334.373108,284.955627 348.704712,279.205444 363.721832,273.113098 
M306.916107,285.621490 
	C305.796326,287.887817 301.855713,289.172455 303.282898,292.080200 
	C304.772675,295.115509 308.391022,293.284149 311.067474,293.613922 
	C311.670654,293.688232 312.444458,293.698669 312.829498,292.520233 
	C310.715881,290.980896 308.793762,289.187622 309.442810,285.914612 
	C309.670227,284.767853 308.432068,284.400391 306.916107,285.621490 
z"/>
<path fill="#489AAB" opacity="1.000000" stroke="none" 
	d="
M410.048950,196.694275 
	C414.984680,197.047028 419.484711,197.208450 423.919495,197.833115 
	C426.177521,198.151169 429.806549,197.671906 429.935089,200.889938 
	C430.102875,205.091522 432.131714,210.368607 427.041809,213.139801 
	C417.703247,218.224167 408.288177,223.224457 398.607422,227.601547 
	C393.282867,230.009033 387.493103,227.236862 381.917969,226.961349 
	C372.978394,226.519592 364.079102,225.253189 355.164978,224.314407 
	C353.349335,224.123184 351.538879,223.869125 349.734131,223.591263 
	C347.248108,223.208466 344.540955,223.007523 344.214935,219.671524 
	C343.895813,216.405365 345.518005,214.341797 348.508392,213.161301 
	C349.701111,212.690460 351.147858,212.574768 352.001709,210.975342 
	C349.967407,208.488220 346.003052,208.357330 343.982422,205.025253 
	C347.283295,202.643021 351.127136,203.640686 354.496246,202.864197 
	C359.649292,201.676590 365.007294,201.404526 370.252075,200.577637 
	C373.016907,200.141708 375.859314,199.748962 376.428833,195.976776 
	C376.807709,193.467361 378.919434,193.951294 380.815704,194.130341 
	C390.401184,195.035309 399.995239,195.848969 410.048950,196.694275 
M369.764221,204.297318 
	C364.052277,204.674454 358.348022,205.102158 352.234955,206.787369 
	C364.809082,212.695709 377.455872,216.328262 390.500946,218.669968 
	C392.612823,219.049088 395.043091,219.985382 396.849548,219.336716 
	C405.235382,216.325516 413.116241,212.232452 420.930115,206.752258 
	C409.093811,204.360001 397.717194,204.818939 386.572205,203.131256 
	C381.132355,202.307495 375.771057,202.021606 369.764221,204.297318 
M358.596466,221.657043 
	C370.551361,222.320175 382.342041,225.268478 395.141815,224.578400 
	C387.512878,220.911987 353.644226,216.780823 347.966156,218.893860 
	C350.992676,221.627457 354.374969,221.530960 358.596466,221.657043 
M384.279175,197.382599 
	C382.889618,197.651978 381.460938,196.148666 380.063568,197.435211 
	C381.858398,199.726181 421.951233,204.108948 427.020844,201.836807 
	C412.149994,200.275482 398.562378,198.848907 384.279175,197.382599 
z"/>
<path fill="#489AAB" opacity="1.000000" stroke="none" 
	d="
M264.983765,204.537460 
	C260.859009,203.178268 261.163239,206.581253 260.340973,208.580322 
	C259.684387,210.176575 259.947845,212.827667 257.347107,212.147049 
	C254.711823,211.457382 255.556961,208.831680 256.013031,207.069397 
	C256.949097,203.452606 258.429413,199.931870 262.973022,199.823685 
	C266.781464,199.733017 269.195465,201.977264 270.131439,205.515747 
	C270.508026,206.939362 271.212189,209.126831 269.235901,209.922165 
	C266.849335,210.882614 266.795593,208.450226 266.129913,207.084290 
	C265.769196,206.344086 265.505646,205.556519 264.983765,204.537460 
z"/>
<path fill="#489AAB" opacity="1.000000" stroke="none" 
	d="
M275.348633,187.352417 
	C277.683411,189.163727 278.843536,191.020584 277.173553,193.487610 
	C275.727478,195.623917 273.564514,195.719589 271.467712,194.839554 
	C269.584412,194.049103 268.896210,192.386963 269.479828,190.347214 
	C270.291718,187.509674 272.028473,186.234070 275.348633,187.352417 
z"/>
<path fill="#489AAB" opacity="1.000000" stroke="none" 
	d="
M245.398132,194.039841 
	C246.086792,193.497498 246.473877,193.122330 246.926178,193.010178 
	C249.290527,192.423889 251.542297,192.342285 252.754181,195.035828 
	C253.476654,196.641663 253.552414,198.298538 252.115875,199.539703 
	C250.485382,200.948486 248.579590,201.159134 246.652084,200.094177 
	C244.161667,198.718170 243.742310,196.751175 245.398132,194.039841 
z"/>
<path fill="#489AAB" opacity="1.000000" stroke="none" 
	d="
M167.386948,348.824463 
	C164.581039,353.467041 160.933792,356.446320 156.052826,357.840424 
	C150.645309,359.385010 144.305893,356.232422 143.141022,351.410461 
	C141.793320,345.831635 146.769943,337.993530 152.584442,336.901733 
	C155.348267,336.382751 158.234970,336.327850 161.022659,337.005798 
	C167.265610,338.524048 169.184525,341.941162 167.386948,348.824463 
M149.659683,342.109192 
	C145.958969,346.173950 145.091278,350.816956 147.920761,353.550415 
	C151.480942,356.989746 155.208939,355.455811 158.753006,353.213531 
	C159.730270,352.595215 160.753555,352.002136 161.592712,351.222107 
	C164.028381,348.957977 165.631180,346.180420 164.445404,342.844269 
	C163.250183,339.481537 160.122833,339.175415 157.023026,339.102325 
	C154.403503,339.040558 152.157364,339.868591 149.659683,342.109192 
z"/>
<path fill="#489AAB" opacity="1.000000" stroke="none" 
	d="
M382.588135,204.210175 
	C386.415497,204.797638 390.259613,204.474960 394.764923,206.462906 
	C389.436584,207.999603 385.800385,206.726959 382.588135,204.210175 
z"/>
</svg>