<svg width="31" height="47" viewBox="0 0 31 47" fill="none" xmlns="http://www.w3.org/2000/svg">
    <path d="M15.5 0L29.8077 4.17308L30.4038 14.3077L29.8077 20.2692L27.4231 26.2308L23.25 30.4038L15.5 34.5769V0Z" fill="#336DFF" fill-opacity="0.1"/>
    <path d="M 29.6 4.4 L 29.6 4.4 L 15.7 0.5 L 15.7 0.5 C 15.6 0.5 15.4 0.5 15.3 0.5 L 15.2 0 L 15.3 0.5 L 1.4 4.4 L 1.4 4.4 C 1.1 4.5 1 4.7 0.9 4.9 L 29.6 4.4 Z M 29.6 4.4 C 29.9 4.5 30 4.7 30.1 4.9 C 30.1 5.2 30.6 8.7 30.5 13 C 30.4 17.4 29.6 22.4 27.4 25.6 M 29.6 4.4 C 35 31 15.9 34 15.7 34.1 C 15.6 34.1 15.6 34.1 15.5 34.1 C 15.4 34.1 15.4 34.1 15.4 34.1 C 15.1 34 8.3 32.3 3.6 25.6 C 1.4 22.4 0.6 17.4 0.5 13 L 0.5 13 C 0.4 8.7 0.9 5.2 0.9 4.9 L 29.6 4.4 Z M 8.3 13.3 L 8.3 13.3 L 7.1 14.5 C 6.8 14.8 6.7 15.2 6.7 15.7 C 6.7 16.1 6.8 16.5 7.1 16.8 L 13 22.7 C 13.3 23 13.8 23.1 14.2 23.1 C 14.6 23.1 15 23 15.3 22.7 L 24.9 13.2 C 25.5 12.6 25.5 11.5 24.9 10.9 L 23.7 9.7 C 23.7 9.7 23.7 9.7 23.7 9.7 C 23.4 9.4 23 9.2 22.5 9.2 C 22.1 9.2 21.7 9.4 21.4 9.7 C 21.4 9.7 21.4 9.7 21.4 9.7 L 14.2 16.9 L 10.6 13.3 C 10.6 13.3 10.6 13.3 10.6 13.3 C 10 12.7 8.9 12.7 8.3 13.3 Z" stroke="#489AAB"/>
    <path d="M7.81722 38.114V39.8449H11.681L13.2665 38.7879L18.129 37.0634C18.5917 36.9007 19.0884 36.9336 19.5258 37.1557C19.9637 37.3779 20.2828 37.7586 20.4253 38.2283C20.6716 39.0412 20.3059 39.921 19.5558 40.3192L18.3068 40.9826L20.123 40.9883L20.8696 39.1214C21.1153 38.5098 21.6998 38.114 22.3598 38.114C22.875 38.114 23.3619 38.3644 23.6626 38.7821C23.9632 39.201 24.0446 39.7421 23.8801 40.2303L23.7053 40.7483L24.9711 40.0565C25.3738 39.8356 25.855 39.7929 26.2906 39.94C26.7262 40.0853 27.0845 40.409 27.2738 40.8273C27.6442 41.6454 27.3032 42.598 26.4977 42.9955L23.6499 44.4009L17.7384 45.6033L10.0679 45.6142L7.81722 45.1642V46.7682H3.77858V38.114H7.81722ZM22.7256 39.4554C22.5317 39.1854 22.0644 39.2426 21.9415 39.5506L21.3646 40.9924L22.4043 40.9958L22.7862 39.8615C22.8329 39.7225 22.811 39.5748 22.7256 39.4554ZM10.1822 44.4604H17.5683L23.2074 43.3324L25.9871 41.961C26.2311 41.8404 26.3349 41.5514 26.2224 41.3027C26.1642 41.174 26.0586 41.0783 25.9241 41.0338C25.7909 40.9877 25.6478 41.0009 25.5237 41.0696L23.5419 42.1525H18.066L15.7894 41.0142L19.0139 39.3001C19.2781 39.1594 19.4074 38.8495 19.3209 38.5628C19.2708 38.3973 19.1583 38.2622 19.0036 38.1843C18.8495 38.1053 18.6742 38.0949 18.5109 38.1514L13.8457 39.7882L12.0306 40.9987H7.8171V43.9873L10.1822 44.4604ZM4.93253 45.6142H6.66339V39.2678H4.93253V45.6142Z" fill="#489AAB"/>
</svg>
