<?xml version="1.0" encoding="UTF-8"?><svg id="Layer_1" xmlns="http://www.w3.org/2000/svg" viewBox="0 0 64 64"><defs><style>.cls-1{fill:#459aab;}.cls-2{fill:#829da9;}.cls-3{fill:#28637f;}</style></defs><path class="cls-1" d="M37.48,39.67c-.3-.23-.59-.21-.86-.16-.65,.12-1.31,.24-1.95,.4-2.46,.62-4.86,1.42-7.27,2.2-2.49,.8-4.96,1.64-7.46,2.42-1.77,.55-3.56,1.04-5.35,1.52-.63,.17-1.27,.32-1.94,.23-.51-.07-.91-.39-.98-.81-.05-.29,.04-.57,.2-.8,.24-.34,.53-.65,.81-.95,.16-.17,.35-.32,.55-.5-.15,.32-.3,.6-.4,.88-.11,.3-.06,.44,.23,.57,.24,.11,.51,.17,.77,.18,.92,.02,1.81-.16,2.7-.38,1.79-.45,3.52-1.1,5.26-1.71,3.7-1.3,7.38-2.66,11.12-3.82,1.71-.53,3.42-1.02,5.18-1.36,.95-.18,1.91-.36,2.88-.25,.22,.02,.44,.07,.64,.15,.5,.19,.62,.55,.27,.95-.29,.33-.62,.64-.99,.88-.86,.56-1.74,1.1-2.64,1.58-2.2,1.16-4.42,2.27-6.62,3.44-1.07,.57-2.09,1.22-3.13,1.86-.26,.16-.48,.4-.72,.61-.08,.08-.16,.18-.21,.28-.18,.33-.08,.56,.29,.6,.37,.03,.75,.04,1.11-.03,1.1-.22,2.2-.44,3.27-.75,3.11-.89,6.2-1.82,9.3-2.74,2.51-.74,5.02-1.44,7.58-1.99,1.45-.31,2.91-.57,4.39-.67,1.01-.07,2.01-.05,2.97,.3,.3,.11,.61,.25,.88,.43,.51,.34,.62,.81,.38,1.38-.22,.53-.6,.94-.98,1.35-.43,.46-.88,.9-1.31,1.37-.12,.13-.22,.28-.3,.43-.18,.35-.12,.55,.27,.67,.3,.09,.62,.11,.93,.15,.1,.01,.21,0,.31,.03-.25,.16-.55,.17-.83,.19-.52,.04-1.05,.04-1.57,.03-.2,0-.41-.08-.61-.16-.48-.18-.74-.58-.71-1.09,.02-.26,.07-.53,.16-.78,.13-.36,.32-.7,.47-1.05,.26-.58,.11-.87-.52-.94-.37-.04-.75-.06-1.12-.01-.97,.13-1.94,.26-2.9,.46-3.54,.73-7,1.79-10.49,2.73-2.26,.61-4.53,1.22-6.8,1.78-1.65,.41-3.32,.75-5.04,.81-.63,.02-1.23-.08-1.81-.33-.89-.37-1.07-1.03-.5-1.82,.41-.56,.93-1.01,1.49-1.42,1.35-.99,2.83-1.76,4.34-2.49,1.98-.96,3.96-1.95,5.93-2.94,.32-.16,.62-.37,.92-.57,.13-.09,.24-.21,.4-.35Z"/><path class="cls-3" d="M17.6,27.14c1.45,.38,2.85,.69,4.05,1.7-.11,.42-.19,.82-.31,1.21-.5,1.64-.97,3.3-1.53,4.92-.22,.63-.39,1.28-.61,1.91-.28,.8-.63,1.07-1.72,1.87-.85,.62-1.68,1.31-2.45,2.04-.39,.37-.77,.75-1.13,1.15-.16,.18-.33,.38-.5,.55-.08,.08-.19,.18-.38,.39-.02-.34-.04-.58-.04-.83,0-1.7,.05-3.4-.03-5.09-.04-.93,.25-1.71,.67-2.47,.28-.5,.58-.98,.85-1.49,.91-1.74,1.8-3.48,2.71-5.22,.11-.22,.27-.42,.41-.63Zm-2.01,7.78c-.15,.32,.01,.49-.07,.81-.15,.59-.51,1.47-.69,2.05-.16,.52-.3,1.04-.43,1.56,.29-.56,.6-1.22,.75-1.6,.17-.44,.36-.83,.58-1.25,.1-.2,.17-.41,.28-.61s.34-.27,.5-.42c.18-.16,.17-.41,.04-.63-.12-.19-.37-.28-.59-.22-.19,.05-.3,.16-.36,.3Z"/><path class="cls-2" d="M4.06,21.57c.08-.39,.92-.54,1.26-.62,3.82-.97,7.72-1.81,11.39-3.26,.27-.11,.54-.23,.84-.2,.22,.03,.36,.18,.26,.4-.08,.16-.24,.26-.41,.32-3.36,1.25-6.7,2.57-10.08,3.77-.14,.05-.27,.15-.48,.28,.06-.04,1.68,2.06,1.84,2.25,.62,.77,1.23,1.54,1.83,2.32,1.26,1.64,2.4,3.35,3.56,5.05,.33,.48-.42,.33-.63,.16-.25-.2-.42-.5-.63-.73-.25-.28-.49-.57-.73-.85-.51-.62-.97-1.29-1.52-1.87-1.14-1.21-2.29-2.41-3.45-3.6-.54-.56-1.09-1.11-1.62-1.67-.42-.44-1.34-1-1.42-1.64,0-.04,0-.07,0-.11Z"/><path class="cls-3" d="M29.12,14.42c-.12,.44-.17,.75-.29,1.03-1,2.28-2.02,4.56-3.03,6.84-.31,.69-.58,1.4-.88,2.12l-2.19-1.53c.23-.58,.39-1.17,.69-1.69,.92-1.65,1.77-3.35,2.91-4.86,.58-.77,1.26-1.49,2.21-1.84,.11-.04,.25-.03,.58-.07Z"/><path class="cls-3" d="M22.77,29.27c-.63-1.72-2.44-2.29-4.05-2.74-.44-.12-.98-.26-1.44-.12-.16,.05-.03,.01-.75,.25-.03,.01,.02-.28,.05-.37,.24-.84,.46-1.69,.83-2.47,.1-.22,.29-.42,.48-.56,.26-.2,.39-.15,.99-.09-.14,.72-.5,1.24-.38,2.17l1.72,.61c.36,.13,.65,.23,.97-.07,.18-.17,.85-1.87,1.06-1.79,.74,.3,1.35,.79,1.91,1.46-.11,1.3-.85,2.39-1.38,3.72Z"/><path class="cls-2" d="M1.83,26.98c.04-.15,.28-.21,.44-.31,.25-.15,.5-.31,.76-.45,.73-.38,1.47-.75,2.21-1.13,.14-.07,.29-.15,.45-.17,.49-.06,.49,.29,.24,.57-.2,.23-.46,.42-.72,.59-.09,.06-1.18,.81-1.08,.89,1.57,1.13,3.13,2.22,4.66,3.36,.85,.64,1.71,1.27,2.53,1.96,.52,.44,1.08,.84,1.48,1.4,.23,.32,.37,.78-.19,.69-.17-.03-.31-.13-.44-.24-.33-.29-.67-.56-1.02-.82-.2-.15-.41-.28-.61-.42-.09-.07-.43-.43-.52-.43-.45-.33-.9-.65-1.36-.97-.42-.29-.99-.54-1.34-.9-.95-.6-1.93-1.14-2.9-1.71-.48-.29-.95-.58-1.41-.9-.38-.26-.82-.39-1.1-.78-.07-.1-.09-.18-.07-.24Z"/><path class="cls-3" d="M20.64,15.24c.22,.03,.15,.33,.14,.47-.1,1.15-.39,2.3-.65,3.43-.21,.9-.46,1.8-.83,2.65-.03,.06-.09,.1-.16,.1-.16,0-.29,0-.42,0-.09,0-.25-.03-.41-.06-.09-.01-.16-.1-.14-.2,.03-.14,.08-.26,.12-.37,.73-1.97,1.35-3.98,2.17-5.92,.03-.07,.1-.11,.18-.1Z"/><g><path class="cls-3" d="M31.26,25.99h-.86v2.11h-1.73v-6.24h2.59c1.55,0,2.34,.88,2.34,2.08,0,1.09-.75,2.05-2.34,2.05Zm-.17-1.38c.52,0,.73-.27,.73-.67s-.21-.68-.73-.68h-.69v1.35h.69Z"/><path class="cls-3" d="M37.08,21.85c1.55,0,2.33,.89,2.33,2,0,.81-.44,1.52-1.37,1.81l1.41,2.43h-1.94l-1.24-2.3h-.19v2.3h-1.73v-6.24h2.73Zm-.14,1.45h-.86v1.3h.86c.47,0,.71-.23,.71-.66,0-.39-.24-.65-.71-.65Z"/><path class="cls-3" d="M44.23,23.24h-2.26v1.02h1.99v1.32h-1.99v1.12h2.26v1.39h-3.99v-6.24h3.99v1.39Z"/><path class="cls-3" d="M47.49,28.15c-1.39,0-2.47-.66-2.54-2h1.85c.04,.47,.31,.63,.63,.63s.55-.16,.55-.45c0-1-3.04-.53-3.01-2.7,0-1.22,1.02-1.88,2.34-1.88,1.43,0,2.37,.7,2.43,1.94h-1.89c-.02-.39-.26-.57-.58-.57-.26,0-.46,.14-.46,.44,0,.93,3,.63,3,2.63,0,1.1-.85,1.96-2.33,1.96Z"/><path class="cls-3" d="M50.32,21.85h5.05v1.38h-1.66v4.86h-1.73v-4.86h-1.65v-1.38Z"/><path class="cls-3" d="M60.01,27.07h-2.21l-.34,1.02h-1.82l2.27-6.24h2l2.27,6.24h-1.83l-.34-1.02Zm-1.11-3.35l-.66,2.02h1.34l-.67-2.02Z"/></g><g><path class="cls-1" d="M30.81,35.54c-1.24,0-2.12-.69-2.13-1.71h.86c.05,.51,.42,1.03,1.27,1.03,.78,0,1.24-.44,1.24-1.03,0-1.66-3.34-.6-3.34-2.89,0-1.02,.82-1.71,2.04-1.71s1.95,.65,2.04,1.58h-.89c-.05-.42-.44-.89-1.19-.89-.66-.02-1.19,.33-1.19,.99,0,1.59,3.33,.6,3.33,2.89,0,.88-.72,1.74-2.05,1.74Z"/><path class="cls-1" d="M34.14,29.31h.81v6.17h-.81v-6.17Z"/><path class="cls-1" d="M42.04,31.1h-.96c-.34-.72-1.01-1.13-1.88-1.13-1.3,0-2.27,.94-2.27,2.43s.97,2.42,2.27,2.42c1.21,0,2.04-.78,2.17-2h-2.46v-.66h3.32v.62c-.14,1.53-1.35,2.76-3.03,2.76s-3.1-1.29-3.1-3.14,1.36-3.15,3.1-3.15c1.3,0,2.38,.67,2.84,1.86Z"/><path class="cls-1" d="M48.23,29.3v6.18h-.81l-3.24-4.91v4.91h-.81v-6.18h.81l3.24,4.9v-4.9h.81Z"/></g></svg>