<svg width="420" height="255" viewBox="0 0 420 255" fill="none" xmlns="http://www.w3.org/2000/svg">
<path d="M167.164 146.355C164.373 148.105 161.583 149.855 159.244 151.322C159.244 160.787 159.284 170.743 159.232 180.698C159.187 189.359 159.237 198.028 158.89 206.68C158.372 219.565 153.966 223.516 141.114 223.084C138.303 222.99 135.499 222.702 133.188 222.538C131.129 231.407 129.109 240.11 127.078 248.855C182.94 248.855 239.999 248.855 296.143 248.855C294.339 240.39 292.481 231.672 290.506 222.402C286.951 222.402 282.615 222.831 278.398 222.308C270.68 221.351 266.742 217.928 266.054 210.222C265.05 198.967 264.952 187.624 264.691 176.313C264.495 167.859 264.652 159.398 264.652 150.65C263.407 150.076 261.475 149.186 259.339 147.688C259.798 145.927 260.46 144.773 261.534 143.718C264.023 144.241 266.101 145.033 268.18 145.037C306.737 145.096 345.294 145.067 383.851 145.02C385.285 145.018 386.79 145.001 388.5 145.001C389.5 145.001 389.536 144.97 390 145C390.464 145.03 390.5 145 391.363 145.001C392.5 145.02 392.872 144.959 394 145C394.934 145.034 396 145 396.5 145C397.164 145 398.5 145 399 145C399.976 144.515 399 144.5 399 144.5C402 142.5 401.667 141.5 401.667 139C401.667 136 401.667 134.211 401.667 131C401.667 129.913 401.667 127.5 401.667 126.5C401.667 120 401.667 114.052 401.667 107.5C401.667 104 401.667 101 401.667 97.5C401.667 95 401.663 92.8847 401.667 90.7301C401.716 65.9205 401.735 41.1108 401.695 16.3013C401.693 14.5183 401.169 12.7361 400.793 10.6098C398.81 5.78502 394.798 5.93935 390.968 5.93516C351.487 5.89191 312.006 5.86864 272.525 5.88889C262.627 5.89397 259.822 8.6614 259.731 18.7115C259.607 32.5372 259.679 46.3646 259.693 60.1913C259.694 61.1487 259.915 62.1059 260.019 62.9473C264.619 64.5601 267.552 63.005 270.571 59.5604C280.624 48.0922 296.446 46.9736 308.251 56.4765C319.512 65.5413 321.641 81.3116 312.89 93.1729C304.469 104.587 292.881 106.333 279.625 103.011C278.982 102.265 278.633 101.685 278.643 101.027C280.004 99.9274 281.007 98.9063 282.009 97.8851C293.076 102.137 305.638 97.3343 310.787 86.8834C315.682 76.9492 311.993 64.7717 302.358 59.0561C292.057 52.9449 279.906 55.5137 272.695 65.3274C270.438 68.3991 259.089 70.6122 255.913 68.3129C254.947 67.6133 254.372 65.7794 254.354 64.4549C254.149 49.7959 254.031 35.1349 254.045 20.4745C254.047 17.8401 254.559 15.1606 255.169 12.5807C257.109 4.37966 261.546 0.698996 269.984 0.636267C287.812 0.503699 305.641 0.575446 323.469 0.541037C344.795 0.499869 366.121 0.506125 387.446 0.357703C403.366 0.246878 407.108 4.24775 406.946 20.065C406.574 56.378 406.529 92.6942 406.353 129.009C406.344 130.842 406.36 132.675 406.351 134.508C406.292 146.435 405.213 147.896 394.366 150.834C394.366 154.821 394.326 158.786 394.374 162.75C394.544 177.068 395.069 191.392 394.84 205.703C394.615 219.781 389.961 223.759 376.028 223.073C373.543 222.951 371.065 222.693 369.142 222.542C367.064 231.409 365.023 240.124 362.905 249.161C363.571 249.161 365.322 249.161 367.074 249.161C382.736 249.163 398.399 249.145 414.061 249.189C416.241 249.195 419.424 248.42 419.025 252.04C418.916 253.03 415.823 254.395 414.095 254.401C373.273 254.531 332.451 254.497 291.628 254.497C196.987 254.497 102.346 254.5 7.70459 254.502C7.37133 254.502 7.02899 254.553 6.70632 254.495C4.5054 254.097 0.89651 255.784 0.862544 251.866C0.828547 247.945 4.42117 249.226 6.63818 249.214C23.3 249.124 39.9625 249.163 56.6248 249.162C58.2418 249.162 59.8588 249.162 60.3512 249.162C58.4078 240.278 56.4982 231.549 54.5678 222.725C51.6927 222.725 48.2244 222.914 44.7831 222.689C35.1797 222.06 30.2819 218.193 29.8828 208.62C29.1764 191.674 29.5424 174.683 29.4944 157.71C29.4883 155.573 29.6921 153.436 29.7938 151.397C19.5944 147.184 18.3311 144.923 18.3653 133.718C18.4803 96.0622 18.4594 58.4058 18.4969 20.7494C18.5142 3.31409 20.4234 0.705237 37.7143 0.511862C71.5308 0.133704 105.356 0.496267 139.177 0.505865C144.005 0.507238 148.835 0.0711884 153.659 0.150198C163.376 0.309332 169.565 5.20981 169.963 14.774C170.663 31.5731 170.369 48.4144 170.398 65.2382C170.4 66.2588 169.861 67.647 169.092 68.2378C165.991 70.6215 154.424 68.2588 151.982 65.0684C146.657 58.1117 139.782 54.0305 130.82 55.6445C121.569 57.3104 115.079 62.743 112.574 72.0115C109.202 84.4882 117.372 95.9927 131.704 99.3361C132.08 101.303 132.045 102.739 131.598 104.214C126.857 102.751 122.528 101.248 118.124 99.8355C118.05 99.9253 118.233 99.7806 118.063 99.4942C114.702 95.4225 111.511 91.6374 108.286 87.5312C107.919 86.4309 107.586 85.6518 107.252 84.4155C105.619 68.8778 111.484 57.516 123.566 52.4341C133.748 48.1518 143.061 50.3072 151.912 56.5417C152.196 56.9803 152.451 57.1045 152.841 57.3876C153.5 58 153.5 58 153.5 58C153.5 58 153.5 58 153.871 58.4711C154.552 59.2636 155.141 59.7724 155.838 60.168C155.946 60.0548 155.703 60.2521 155.772 60.6143C158.063 65.3475 161.641 63.3797 164.982 63.202C164.982 47.1078 165.093 31.299 164.855 15.4955C164.821 13.262 163.083 11.0542 162.086 8.89992C162.04 8.96535 162.168 8.86863 162.036 8.50918C159.276 7.37089 156.659 5.96673 154.017 5.91903C141.045 5.68487 128.067 5.81008 115.091 5.81051C88.1404 5.81139 61.1892 5.71126 34.2411 5.95608C31.1691 5.98397 28.1146 7.94886 24.8232 9.19695C24.4829 9.93583 24.3716 10.4933 24.0914 11.4884C23.8726 12.9236 23.7801 13.9212 23.7788 14.9189C23.7239 55.9069 23.666 96.8949 23.642 137.883C23.6385 143.827 25.3306 145.155 32.2936 145.148C69.4492 145.108 106.605 145.092 143.76 145.034C146.735 145.03 149.709 144.772 153.076 144.704C153.991 144.838 154.513 144.901 155.435 145.01C156.903 144.989 157.971 144.92 159.369 144.949C160.495 144.74 161.293 144.434 162.066 144.067C162.041 144.006 162.125 144.108 162.391 144.066C163.045 143.654 163.433 143.284 164.192 142.922C165.482 143.049 166.401 143.168 167.303 143.285C167.25 144.464 167.207 145.409 167.164 146.355ZM125.999 224.108C125.542 221.75 125.085 219.392 125.131 216.348C125.63 203.562 126.008 190.769 126.729 177.995C126.874 175.43 124.74 170.731 129.231 170.707C133.687 170.684 131.768 175.376 131.811 177.954C132.025 190.891 131.909 203.833 131.909 217.568C135.774 217.568 138.718 217.568 142.396 217.772C144.125 217.657 145.914 217.787 147.571 217.381C151.58 216.4 152.05 212.599 152.636 209.539C152.936 207.974 156.583 205.475 152.713 203.225C153.135 201.971 153.94 200.713 153.921 199.466C153.681 183.359 153.323 167.253 152.985 150.709C113.279 150.709 74.3738 150.709 34.31 150.709C34.31 168.558 34.2448 186.169 34.3811 203.78C34.4012 206.387 34.8567 209.262 36.054 211.512C37.1853 213.637 39.3621 216.27 41.426 216.617C45.9886 217.385 50.7693 216.856 55.8556 216.856C55.8556 206.783 55.8431 197.303 55.861 187.824C55.8698 183.161 55.7815 178.487 56.093 173.842C56.1628 172.801 57.7215 171.859 58.5948 170.871C59.4342 171.871 60.5523 172.756 61.0285 173.906C61.4417 174.904 61.1373 176.203 61.1339 177.369C61.0862 193.692 60.8733 210.017 61.0873 226.336C61.1495 231.082 62.0551 235.911 63.2699 240.519C64.2517 244.242 67.0292 246.904 71.2365 246.989C77.8507 247.122 84.4695 247.024 91.5311 247.024C91.5311 239.63 91.4294 232.668 91.5911 225.712C91.6417 223.533 90.2741 219.976 94.3015 220.181C95.2451 220.229 96.6705 223.636 96.7495 225.544C97.0426 232.627 96.8663 239.731 96.8663 247.671C103.256 247.039 108.941 246.477 115.205 246.602C115.482 246.714 115.759 246.827 116.753 246.792C121.47 246.163 123.792 242.969 124.938 238.791C125.631 236.265 125.855 233.61 126.735 230.477C126.474 228.642 126.212 226.807 125.999 224.108ZM388.651 203.226C389.076 201.973 389.887 200.715 389.868 199.469C389.621 183.353 389.255 167.238 388.91 150.69C349.217 150.69 310.334 150.69 270.004 150.69C270.004 167.123 269.806 183.401 270.059 199.671C270.312 215.942 274.451 219.256 290.575 216.963C290.861 216.922 291.11 216.619 291.7 216.217C291.7 210.111 291.675 203.788 291.707 197.465C291.742 190.468 291.659 183.463 292.006 176.48C292.1 174.583 293.425 171.252 294.417 171.163C298.139 170.828 296.759 174.185 297.068 176.249C297.166 176.901 297.082 177.579 297.08 178.246C297.027 194.073 296.785 209.902 297.03 225.725C297.108 230.799 297.798 236.098 299.516 240.818C300.452 243.388 303.956 246.368 306.61 246.701C313.29 247.539 320.145 246.978 327.23 246.978C327.317 244.998 327.442 243.375 327.45 241.752C327.48 236.087 327.265 230.411 327.601 224.766C327.701 223.094 329.309 221.512 330.226 219.889C331.076 221.577 332.174 223.192 332.697 224.977C333.102 226.359 332.791 227.952 332.791 229.451C332.793 235.216 332.792 240.982 332.792 247.576C338.991 247.022 344.497 246.53 350.507 246.507C351.121 246.642 351.947 247.105 352.32 246.865C361.846 240.746 365.329 229.14 361.046 217.161C361.554 209.381 362.214 201.606 362.524 193.817C362.776 187.504 362.441 181.167 362.747 174.858C362.821 173.338 364.401 171.89 365.288 170.409C366.135 171.959 367.45 173.432 367.722 175.077C368.151 177.672 367.9 180.383 367.902 183.045C367.91 194.299 367.905 205.553 367.905 217.72C372.257 217.403 375.623 217.157 379.216 217.578C382.632 217.618 385.829 217.471 385.984 212.757C386.007 212.061 387.843 211.448 387.896 210.726C388.063 208.497 392.371 206.419 388.651 203.226Z" fill="#489AAB"/>
<path d="M257.589 146.944C256.494 143.462 253.021 140.539 255.834 136.443C256.274 135.804 254.91 133.926 254.187 132.31C254.065 119.293 254.093 106.586 254.232 93.8799C254.271 90.3178 252.895 85.6719 259.823 85.907C260.621 85.9809 260.781 86.0516 260.994 86.482C262.64 88.1652 264.234 89.4887 265.405 90.8545C262.253 90.8671 259.707 90.7091 259.839 94.8281C260.107 103.202 260.045 111.586 259.983 120.421C260.273 128.457 260.698 136.039 261.122 143.62C260.46 144.774 259.798 145.927 259.082 147.413C258.625 147.511 258.222 147.278 257.589 146.944Z" fill="#489AAB"/>
<path d="M151.729 90.7331C152.913 86.5565 155.934 85.8345 159.824 85.9967C170.06 86.4237 170.062 86.3241 170.326 96.4937C170.373 98.3165 170.442 100.139 170.162 102.327C168.335 101.744 166.847 100.796 165.268 99.4226C165.153 98.0133 165.352 96.9568 165.058 96.062C164.515 94.4072 163.934 91.6967 162.922 91.4758C160.456 90.9375 157.155 90.08 155.698 94.0412C155.082 94.3231 154.747 94.525 154.142 94.4272C153.157 92.996 152.443 91.8646 151.729 90.7331Z" fill="#489AAB"/>
<path d="M165.323 118.875C166.788 117.643 168.253 116.411 170.072 115.104C170.44 119.038 170.454 123.048 170.504 127.518C169.604 129.467 168.67 130.956 167.273 132.395C165.897 131.563 164.984 130.783 164.044 129.584C164.061 127.769 164.105 126.374 164.44 124.755C164.928 122.645 165.125 120.76 165.323 118.875Z" fill="#489AAB"/>
<path d="M268.1 86.1931C268.523 86.1451 268.946 86.0972 269.686 86.0039C271.624 88.0338 273.243 90.109 275.098 92.8683C274.445 94.8941 273.557 96.2361 272.367 97.4135C270.604 95.2756 269.143 93.3022 267.762 90.905C267.929 89.0517 268.015 87.6224 268.1 86.1931Z" fill="#489AAB"/>
<path d="M140.104 98.1902C141.825 97.4606 143.545 96.7309 145.749 96.2578C147.176 97.6339 148.12 98.7534 148.829 100.065C147.997 100.769 147.402 101.28 146.89 101.882C146.974 101.973 146.832 101.771 146.595 101.771C146.035 101.86 145.79 102.05 145.554 102.37C145.485 102.4 145.339 102.437 145.08 102.442C144.552 102.654 144.283 102.86 143.728 103.066C142.941 103.313 142.441 103.561 141.608 103.789C140.839 103.792 140.402 103.815 139.928 103.434C139.962 101.417 140.033 99.8036 140.104 98.1902Z" fill="#489AAB"/>
<path d="M166.957 134.805C172.438 135.787 169.626 139.413 169.366 142.629C168.861 144.023 168.315 145.026 167.466 146.192C167.206 145.409 167.249 144.464 167.303 143.285C166.401 143.168 165.482 143.049 164.327 142.556C165.047 139.723 166.002 137.264 166.957 134.805Z" fill="#489AAB"/>
<path d="M141.662 217.568C138.718 217.568 135.774 217.568 131.909 217.568C131.909 203.833 132.025 190.891 131.811 177.954C131.768 175.376 133.687 170.684 129.231 170.707C124.74 170.731 126.874 175.43 126.729 177.995C126.008 190.769 125.63 203.562 124.568 216.902C123.704 219.985 123.403 222.514 123.016 225.42C122.209 228.658 121.488 231.52 120.801 234.438C120.836 234.495 120.955 234.437 120.635 234.656C119.847 236.564 119.381 238.253 118.94 239.977C118.967 240.012 118.936 239.931 118.573 239.961C118.107 240.648 118.004 241.306 117.942 241.975C117.984 241.987 117.932 241.918 117.576 241.882C116.784 242.883 116.348 243.92 115.952 244.956C115.993 244.954 115.933 244.899 115.695 244.786C115.18 245.087 114.903 245.501 114.626 245.915C108.941 246.477 103.256 247.039 96.8663 247.671C96.8663 239.731 97.0427 232.627 96.7495 225.544C96.6706 223.636 95.2451 220.229 94.3015 220.181C90.2741 219.976 91.6417 223.533 91.5911 225.712C91.4295 232.668 91.5311 239.63 91.5311 247.024C84.4696 247.024 77.8507 247.122 71.2366 246.989C67.0292 246.904 64.2518 244.242 63.2699 240.519C62.0551 235.911 61.1496 231.082 61.0873 226.336C60.8733 210.017 61.0862 193.692 61.1339 177.369C61.1373 176.203 61.4417 174.904 61.0286 173.906C60.5523 172.756 59.4342 171.871 58.5948 170.871C57.7215 171.859 56.1628 172.801 56.093 173.842C55.7815 178.487 55.8699 183.161 55.861 187.824C55.8431 197.303 55.8557 206.783 55.8557 216.856C50.7694 216.856 45.9886 217.385 41.426 216.617C39.3621 216.27 37.1853 213.637 36.0541 211.512C34.8568 209.262 34.4013 206.387 34.3811 203.78C34.2448 186.169 34.31 168.558 34.31 150.709C74.3739 150.709 113.279 150.709 152.985 150.709C153.323 167.253 153.681 183.359 153.921 199.466C153.94 200.713 153.135 201.971 152.292 203.826C148.468 208.808 145.065 213.188 141.662 217.568Z" fill="#FBFBFB"/>
<path d="M350.003 246.038C344.497 246.53 338.991 247.022 332.792 247.576C332.792 240.982 332.793 235.217 332.791 229.452C332.791 227.952 333.102 226.359 332.697 224.977C332.174 223.193 331.076 221.577 330.226 219.889C329.309 221.512 327.701 223.094 327.601 224.766C327.265 230.411 327.48 236.087 327.45 241.752C327.442 243.375 327.317 244.998 327.23 246.978C320.145 246.978 313.29 247.539 306.61 246.701C303.955 246.368 300.451 243.388 299.516 240.819C297.798 236.099 297.108 230.799 297.03 225.725C296.785 209.902 297.027 194.073 297.08 178.246C297.082 177.58 297.166 176.901 297.068 176.249C296.758 174.185 298.138 170.828 294.417 171.163C293.425 171.253 292.1 174.584 292.006 176.48C291.659 183.463 291.742 190.468 291.707 197.465C291.675 203.788 291.7 210.111 291.7 216.217C291.11 216.619 290.861 216.922 290.575 216.963C274.451 219.256 270.312 215.942 270.059 199.671C269.806 183.401 270.004 167.123 270.004 150.69C310.334 150.69 349.217 150.69 388.91 150.69C389.255 167.238 389.621 183.353 389.868 199.469C389.887 200.715 389.076 201.974 388.239 203.832C384.881 208.595 381.935 212.753 378.989 216.911C375.623 217.157 372.257 217.403 367.905 217.72C367.905 205.553 367.91 194.299 367.902 183.045C367.9 180.383 368.151 177.672 367.722 175.077C367.45 173.432 366.135 171.959 365.288 170.41C364.401 171.891 362.821 173.338 362.747 174.858C362.441 181.167 362.776 187.504 362.524 193.817C362.214 201.606 361.554 209.381 360.781 217.844C358.144 228.129 356.698 238.086 350.003 246.038Z" fill="#FBFBFB"/>
<path d="M145.08 102.442C145.015 102.795 144.69 103.152 144.19 103.288C144.283 102.86 144.552 102.654 145.08 102.442Z" fill="#489AAB"/>
<path d="M146.595 101.771C146.603 102.03 146.374 102.29 145.884 102.445C145.79 102.049 146.035 101.86 146.595 101.771Z" fill="#489AAB"/>
<path d="M279.182 120.167C279.591 120.092 280.149 120.292 280.886 120.734C280.487 120.798 279.908 120.619 279.182 120.167Z" fill="#C1D86F"/>
<path d="M274.181 115.223C274.577 115.146 275.135 115.326 275.869 115.749C275.477 115.821 274.91 115.651 274.181 115.223Z" fill="#C1D86F"/>
<path d="M273.003 140.004C273.098 139.97 273.19 139.933 273.137 139.945C272.993 139.994 273 140 273.003 140.004Z" fill="#DAF08F"/>
<path d="M123.514 234.563C123.427 234.615 123.396 234.399 123.396 234.399C123.396 234.399 123.601 234.512 123.514 234.563Z" fill="#666666"/>
<path d="M161.911 105.773C161.68 105.909 161.411 105.722 161.106 105.211C161.336 105.077 161.604 105.265 161.911 105.773Z" fill="#489AAB"/>
</svg>
