<svg width="56" height="28" viewBox="0 0 56 28" fill="none" xmlns="http://www.w3.org/2000/svg">
<path d="M1.47462 14.2398L1.04649 14.498L1.47462 14.2398C1.38559 14.0922 1.38559 13.9077 1.47462 13.76L1.04829 13.5029L1.47462 13.76C4.05657 9.47973 7.64037 5.87177 11.901 3.26078C12.0093 3.19441 12.1055 3.19049 12.2059 3.22468C12.3208 3.26381 12.4554 3.36113 12.5728 3.51968C12.822 3.85619 12.8635 4.26665 12.7061 4.5219C11.0047 7.28063 10.0222 10.5282 10.0222 13.9999C10.0222 17.4717 11.0047 20.7192 12.7061 23.4779C12.8635 23.7332 12.822 24.1436 12.5728 24.4801C12.4554 24.6387 12.3208 24.736 12.2059 24.7751C12.1055 24.8093 12.0093 24.8054 11.901 24.739C7.64037 22.1281 4.05657 18.5201 1.47462 14.2398Z" stroke="#489AAB"/>
<path d="M28 4.84904C28 2.17099 30.2337 -0.0777391 32.7527 0.831402C32.9559 0.904741 33.1576 0.982847 33.3576 1.06569C35.0561 1.76925 36.5995 2.80048 37.8995 4.10051C39.1995 5.40053 40.2307 6.94387 40.9343 8.64243C41.6379 10.341 42 12.1615 42 14C42 15.8385 41.6379 17.659 40.9343 19.3576C40.2307 21.0561 39.1995 22.5995 37.8995 23.8995C36.5995 25.1995 35.0561 26.2307 33.3576 26.9343C33.1576 27.0172 32.9559 27.0953 32.7527 27.1686C30.2337 28.0777 28 25.829 28 23.151L28 19.9913C28 19.0583 28.7843 18.3315 29.6463 17.9745C30.1682 17.7583 30.6424 17.4414 31.0419 17.0419C31.4414 16.6425 31.7583 16.1682 31.9745 15.6463C32.1907 15.1243 32.3019 14.5649 32.3019 14C32.3019 13.4351 32.1907 12.8757 31.9745 12.3537C31.7583 11.8318 31.4414 11.3576 31.0419 10.9581C30.6424 10.5586 30.1682 10.2417 29.6463 10.0255C28.7843 9.6685 28 8.94173 28 8.00872V4.84904Z" fill="#336DFF" fill-opacity="0.1"/>
<path d="M14.6335 14C14.6335 6.5566 20.69 0.5 28.1335 0.5C35.5771 0.5 41.6335 6.55648 41.6335 14C41.6335 21.4435 35.5771 27.5 28.1335 27.5C20.69 27.5 14.6335 21.4434 14.6335 14ZM23.4211 14C23.4211 16.6026 25.5309 18.7124 28.1335 18.7124C30.7361 18.7124 32.846 16.6026 32.846 14C32.846 11.3974 30.7361 9.28759 28.1335 9.28759C25.5309 9.28759 23.4211 11.3974 23.4211 14Z" stroke="#489AAB"/>
<path d="M43.5599 4.5219C43.4025 4.26665 43.444 3.85619 43.6932 3.51968C43.8105 3.36114 43.9451 3.26381 44.06 3.22468C44.1604 3.19049 44.2566 3.19441 44.3649 3.26078C48.6256 5.87177 52.2094 9.47973 54.7913 13.76C54.8803 13.9077 54.8803 14.0922 54.7913 14.2398C52.2094 18.5201 48.6256 22.1281 44.3649 24.739C44.2566 24.8054 44.1604 24.8093 44.06 24.7751C43.9451 24.736 43.8105 24.6387 43.6931 24.4801C43.444 24.1436 43.4025 23.7332 43.5599 23.4779C45.2612 20.7192 46.2437 17.4717 46.2437 13.9999C46.2437 10.5282 45.2612 7.28063 43.5599 4.5219Z" stroke="#489AAB"/>
</svg>
